<svg xmlns="http://www.w3.org/2000/svg" xmlns:xlink="http://www.w3.org/1999/xlink" width="127" height="99" viewBox="0 0 127 99"><defs><clipPath id="a"><rect width="71" height="71" transform="translate(341 2969)" fill="#fff" stroke="#707070" stroke-width="1"/></clipPath></defs><g transform="translate(-313 -2955)"><rect width="127" height="99" rx="10" transform="translate(313 2955)" fill="#fcc02d"/><g clip-path="url(#a)"><g transform="translate(339.855 2967.854)"><path d="M69.855,48.1H48.1V69.855A1.149,1.149,0,0,0,49.242,71H69.855A1.149,1.149,0,0,0,71,69.855V49.242A1.149,1.149,0,0,0,69.855,48.1Z" fill="#d3a06c"/><path d="M67.565,2.29H46.952a1.149,1.149,0,0,0-1.145,1.145V25.194H67.565a1.149,1.149,0,0,0,1.145-1.145V3.435A1.149,1.149,0,0,0,67.565,2.29Z" fill="#d3a06c"/><path d="M42.371,25.194a1.149,1.149,0,0,0-1.145,1.145V37.962l-.011.011a10.189,10.189,0,0,1,2.3,6.47V48.1H64.129v-22.9Z" fill="#d3a06c"/><path d="M52.677,2.29h9.161V9.161H52.677Z" fill="#b27946"/><path d="M48.1,25.194h9.161v6.871H48.1Z" fill="#b27946"/><path d="M54.968,48.1h9.161v6.871H54.968Z" fill="#b27946"/><path d="M27.484,11.452H18.323a4.579,4.579,0,0,0-4.581,4.581H12.6a3.444,3.444,0,0,0-2.359.939l-.573-1.718A9.853,9.853,0,0,1,19.01,2.29H26.8a9.853,9.853,0,0,1,9.345,12.963l-.573,1.718a3.444,3.444,0,0,0-2.359-.939H32.065V14.887H28.629a3.91,3.91,0,0,1-1.145-2.76Z" fill="#656d78"/><path d="M32.065,64.129V71H13.742V64.129h2.29a2.3,2.3,0,0,0,2.29-2.29h3.435a3.435,3.435,0,1,0,0-6.871H13.742V46.952a1.149,1.149,0,0,1,1.145-1.145h3.435v3.435a1.149,1.149,0,0,0,1.145,1.145h6.871a1.149,1.149,0,0,0,1.145-1.145V45.806h3.435a1.149,1.149,0,0,1,1.145,1.145V64.129Z" fill="#e6e9ed"/><path d="M32.065,64.129h4.581V71H32.065Z" fill="#fcd770"/><path d="M9.161,64.129h4.581V71H9.161Z" fill="#fcd770"/><path d="M2.29,57.258V44.444a10.3,10.3,0,0,1,8.852-10.2l3.9-.561,2.13,6.4L22.9,37.79l5.726,2.29,2.13-6.4,3.9.561a10.35,10.35,0,0,1,8.852,10.2V57.258a6.876,6.876,0,0,1-6.871,6.871H32.065V46.952a1.149,1.149,0,0,0-1.145-1.145H14.887a1.149,1.149,0,0,0-1.145,1.145v8.016h4.581v6.871a2.3,2.3,0,0,1-2.29,2.29H9.161A6.876,6.876,0,0,1,2.29,57.258Z" fill="#fcd770"/><path d="M30.759,33.679l-2.13,6.4L22.9,37.79l4.581-4.581Z" fill="#ffc729"/><path d="M22.9,37.79l-5.726,2.29-2.13-6.4,3.275-.47Z" fill="#ffc729"/><path d="M27.484,45.806v3.435a1.149,1.149,0,0,1-1.145,1.145H19.468a1.149,1.149,0,0,1-1.145-1.145V45.806Z" fill="#b4dd7f"/><path d="M21.758,54.968a3.435,3.435,0,0,1,0,6.871H18.323V54.968Z" fill="#f0d0b4"/><path d="M26.442,29.064l1.042,4.145L22.9,37.79,18.323,33.21l1.042-4.145a9.173,9.173,0,0,0,7.077,0Z" fill="#f0d0b4"/><path d="M35.569,16.971A3.436,3.436,0,0,1,33.21,22.9H31.778a9.435,9.435,0,0,0,.286-2.29V16.032H33.21a3.444,3.444,0,0,1,2.359.939Z" fill="#f0d0b4"/><path d="M14.028,22.9H12.6a3.435,3.435,0,0,1,0-6.871h1.145v4.581A9.435,9.435,0,0,0,14.028,22.9Z" fill="#f0d0b4"/><path d="M28.629,14.887h3.435v5.726a9.435,9.435,0,0,1-.286,2.29,9.168,9.168,0,0,1-12.414,6.161,9.041,9.041,0,0,1-2.943-1.97A9.3,9.3,0,0,1,14.028,22.9a9.435,9.435,0,0,1-.286-2.29V16.032a4.579,4.579,0,0,1,4.581-4.581h9.161v.676a3.91,3.91,0,0,0,1.145,2.76Z" fill="#f0d0b4"/><circle cx="1.145" cy="1.145" r="1.145" transform="translate(17.177 17.177)"/><circle cx="1.145" cy="1.145" r="1.145" transform="translate(26.339 17.177)"/><path d="M27.242,23.657l.12-.242L25.314,22.39l-.12.243a2.561,2.561,0,0,1-4.581,0l-.12-.242-2.049,1.025.12.242a4.851,4.851,0,0,0,8.678,0Z"/><path d="M24.858,14.077a2.748,2.748,0,0,1-.81-1.955V10.306h-2.29v1.816A5.021,5.021,0,0,0,23.239,15.7Z"/><path d="M29.439,14.077a2.748,2.748,0,0,1-.81-1.955V10.306h-2.29v1.816A5.021,5.021,0,0,0,27.819,15.7Z"/><path d="M69.855,46.952H65.274V26.339h2.29a2.293,2.293,0,0,0,2.29-2.29V3.435a2.293,2.293,0,0,0-2.29-2.29H46.952a2.293,2.293,0,0,0-2.29,2.29V24.048h-2.29a2.293,2.293,0,0,0-2.29,2.29v8.969A11.34,11.34,0,0,0,34.829,33.1l-6.421-.917-.624-2.5a10.355,10.355,0,0,0,4.826-5.639h.6a4.585,4.585,0,0,0,4.581-4.581,4.537,4.537,0,0,0-.932-2.74l.369-1.107A11,11,0,0,0,26.792,1.145H19.013A11,11,0,0,0,8.58,15.621l.369,1.107a4.531,4.531,0,0,0-.932,2.739A4.585,4.585,0,0,0,12.6,24.048h.6a10.35,10.35,0,0,0,4.826,5.639l-.624,2.5-6.421.917A11.507,11.507,0,0,0,1.145,44.439V57.258a8.023,8.023,0,0,0,6.871,7.925v6.963H37.79V65.183a8.023,8.023,0,0,0,6.871-7.925V49.242h2.29V69.855a2.293,2.293,0,0,0,2.29,2.29H69.855a2.293,2.293,0,0,0,2.29-2.29V49.242A2.293,2.293,0,0,0,69.855,46.952ZM53.823,3.435h2.29V8.016h-2.29Zm4.581,0h2.29V8.016H58.4Zm-11.452,0h4.581v6.871H62.984V3.435h4.581V24.048H46.952Zm2.29,22.9h2.29v4.581h-2.29Zm4.581,0h2.29v4.581h-2.29Zm-24.58,8.28-1.316,3.949-2.985-1.194,2.948-2.948Zm3.967-12.86h-.068a10.232,10.232,0,0,0,.068-1.145V17.177a2.29,2.29,0,0,1,0,4.581Zm-20.613,0a2.29,2.29,0,1,1,0-4.581v3.435a10.232,10.232,0,0,0,.068,1.145Zm2.29-1.145V16.032A3.44,3.44,0,0,1,18.323,12.6h1.145v-2.29H18.323a5.737,5.737,0,0,0-5.61,4.581H12.6a4.565,4.565,0,0,0-1.731.345l-.111-.334a8.706,8.706,0,0,1,8.26-11.462h7.779A8.7,8.7,0,0,1,35.052,14.9l-.112.336a4.555,4.555,0,0,0-1.73-.345V13.742h-2.29v6.871a8.016,8.016,0,0,1-16.032,0ZM22.9,30.919a10.264,10.264,0,0,0,2.734-.379l.579,2.318L22.9,36.171,19.59,32.858l.579-2.318a10.264,10.264,0,0,0,2.734.379Zm-4.986,3.5,2.948,2.948-2.985,1.194-1.316-3.949ZM10.306,65.274H12.6v4.581h-2.29Zm11.452-9.161a2.29,2.29,0,1,1,0,4.581h-2.29V56.113Zm-2.5,6.871h2.5a4.581,4.581,0,0,0,0-9.161H14.887V46.952h2.29v2.29a2.293,2.293,0,0,0,2.29,2.29h6.871a2.293,2.293,0,0,0,2.29-2.29v-2.29h2.29v22.9H14.887V65.274h1.145A3.431,3.431,0,0,0,19.257,62.984Zm.211-16.032h6.871v2.29H19.468Zm13.742,22.9V65.274H35.5v4.581Zm9.161-12.6a5.732,5.732,0,0,1-5.726,5.726H33.21V56.113h6.871v-2.29H37.79V44.661H35.5v9.161H33.21V46.952a2.293,2.293,0,0,0-2.29-2.29H14.887a2.293,2.293,0,0,0-2.29,2.29v6.871h-2.29V44.661H8.016v9.161H5.726v2.29H17.177v5.726a1.146,1.146,0,0,1-1.145,1.145H9.161a5.732,5.732,0,0,1-5.726-5.726V44.439A9.2,9.2,0,0,1,11.3,35.371l2.958-.423L16.474,41.6,22.9,39.024l6.428,2.571,2.215-6.648,2.958.423a9.206,9.206,0,0,1,7.867,9.07Zm2.29-10.306V44.439a11.4,11.4,0,0,0-2.29-6.832V26.339h4.581V33.21H58.4V26.339h4.581V46.952Zm11.452,2.29H58.4v4.581h-2.29Zm4.581,0h2.29v4.581h-2.29Zm9.161,20.613H49.242V49.242h4.581v6.871H65.274V49.242h4.581Z"/></g></g></g></svg>