<svg xmlns="http://www.w3.org/2000/svg" xmlns:xlink="http://www.w3.org/1999/xlink" width="127" height="99" viewBox="0 0 127 99"><defs><clipPath id="a"><rect width="71" height="71" transform="translate(3322 -8731)" fill="#fff" stroke="#707070" stroke-width="1"/></clipPath></defs><g transform="translate(-3294 8745)"><rect width="127" height="99" rx="10" transform="translate(3294 -8745)" fill="#fcc02d"/><g clip-path="url(#a)"><g transform="translate(3322 -8731)"><path d="M2.3,9.4V65.425A4.191,4.191,0,0,0,6.478,69.6h44.21a4.191,4.191,0,0,0,4.18-4.178V40.341l-6.273,5.583V61.043a2.083,2.083,0,0,1-2.078,2.074H10.394A2.083,2.083,0,0,1,8.32,61.043v-46.9a2.083,2.083,0,0,1,2.074-2.077l10.074,0V5.217H6.477A4.192,4.192,0,0,0,2.3,9.4Z" fill="#52cbf0" fill-rule="evenodd"/><path d="M41.569,12.074l7.026,7.02V33.811l6.273-5.583V9.4a4.192,4.192,0,0,0-4.18-4.183H36.617v6.857h4.952Z" fill="#52cbf0" fill-rule="evenodd"/><path d="M20.468,12.074H36.617V5.217H32.366a3.823,3.823,0,0,0-7.646,0H20.468v6.857Z" fill="#ffcb7c" fill-rule="evenodd"/><path d="M8.32,14.147v46.9a2.083,2.083,0,0,0,2.074,2.074H46.516a2.083,2.083,0,0,0,2.078-2.074V45.925L40.9,52.77,31.152,55.38l3.73-9.372,13.712-12.2V19.094H43.647a2.084,2.084,0,0,1-2.078-2.077V12.074h-21.1l-10.074,0A2.083,2.083,0,0,0,8.32,14.147Z" fill="#f9f9f9" fill-rule="evenodd"/><path d="M41.569,17.017a2.084,2.084,0,0,0,2.078,2.077h4.948l-7.026-7.02v4.943Z" fill="#c6c4c8" fill-rule="evenodd"/><path d="M34.882,46.008l-3.73,9.372L40.9,52.77l-3.009-3.383Z" fill="#ffcb7c" fill-rule="evenodd"/><path d="M34.882,46.008l3.005,3.379,10.707-9.5,6.273-5.575,7.344-6.523-3.025-3.4-4.319,3.84-6.273,5.583Z" fill="#ffe6c0" fill-rule="evenodd"/><path d="M37.887,49.387,40.9,52.77l7.7-6.845,6.273-5.583L65.2,31.148l-2.989-3.359,0,0-7.344,6.523-6.273,5.575Z" fill="#ffcb7c" fill-rule="evenodd"/><path d="M59.186,24.387l3.025,3.4,0,0L65.2,31.148l2.559-2.276c.036-.032.072-.068.1-.1a2.824,2.824,0,0,0,.127-3.872l-.127-.139-2.15-2.42a2.822,2.822,0,0,0-3.972-.231Z" fill="#f46370" fill-rule="evenodd"/><path d="M69.038,23.972l-2.277-2.559a4.219,4.219,0,0,0-5.944-.346l-2.559,2.276h0l-1.994,1.774V9.4a5.584,5.584,0,0,0-5.576-5.579H33.572a5.221,5.221,0,0,0-10.06,0H6.477A5.584,5.584,0,0,0,.9,9.4V31.9a1.4,1.4,0,0,0,2.793,0V9.4A2.788,2.788,0,0,1,6.478,6.614H19.072v4.061H10.394a3.476,3.476,0,0,0-3.47,3.474v46.9a3.474,3.474,0,0,0,3.47,3.47H46.516a3.476,3.476,0,0,0,3.474-3.47V46.549l3.48-3.1V65.425a2.786,2.786,0,0,1-2.783,2.782H6.477a2.786,2.786,0,0,1-2.783-2.782V42.972a1.4,1.4,0,1,0-2.793,0V65.425A5.582,5.582,0,0,0,6.477,71h44.21a5.582,5.582,0,0,0,5.576-5.575V40.97l9.869-8.778h0l2.559-2.276a4.221,4.221,0,0,0,.346-5.943ZM38.014,6.614H50.688A2.788,2.788,0,0,1,53.471,9.4V27.6l-3.48,3.1v-11.6a1.407,1.407,0,0,0-.409-.988l-7.026-7.02a1.408,1.408,0,0,0-.987-.409H38.014ZM45.221,17.7H43.646a.69.69,0,0,1-.681-.681V15.444ZM21.865,6.614H24.72a1.4,1.4,0,0,0,1.4-1.4,2.427,2.427,0,0,1,4.853,0,1.4,1.4,0,0,0,1.4,1.4h2.855v4.063l-13.356,0V6.614ZM47.2,61.043a.688.688,0,0,1-.681.677H10.394a.686.686,0,0,1-.677-.677v-46.9a.688.688,0,0,1,.677-.681H20.416l.053,0h19.7v3.546a3.478,3.478,0,0,0,3.474,3.474H47.2V33.183L33.953,44.965l0,0a1.393,1.393,0,0,0-.287.361l-.009.014c0,.007-.006.014-.01.021-.017.033-.033.067-.047.1,0,.009-.008.016-.012.025L30.2,53.983H14.88a1.4,1.4,0,0,0,0,2.793H31.157a1.41,1.41,0,0,0,.154-.009l.016,0,.035-.006c.043-.007.086-.015.128-.025l.024,0,9.744-2.611h0a1.383,1.383,0,0,0,.282-.111L41.558,54l.017-.011c.033-.018.065-.038.1-.06l.024-.015.009-.007a1.382,1.382,0,0,0,.115-.091l0,0,.159-.142L47.2,49.035V61.043ZM35.342,48.628l1.5,1.687,0,0,0,0,1.5,1.687-4.869,1.3Zm18.638-9.365-.014.013L41.011,50.8l-1.154-1.3,6.284-5.61a1.4,1.4,0,0,0-1.86-2.084L38,47.413l-1.147-1.29L49.522,34.854l.011-.01,9.538-8.485,1.167,1.311-7.593,6.744A1.4,1.4,0,0,0,54.5,36.5L62.1,29.756l1.137,1.277ZM67.3,26.853a1.4,1.4,0,0,1-.467.975l-1.516,1.349L61.158,24.5l1.517-1.35a1.425,1.425,0,0,1,2,.117l2.277,2.559A1.406,1.406,0,0,1,67.3,26.853Z"/><path d="M14.88,49.984H25.862a1.4,1.4,0,0,0,0-2.793H14.88a1.4,1.4,0,0,0,0,2.793Z"/><path d="M14.88,43.186H31.152a1.4,1.4,0,0,0,0-2.793H14.88a1.4,1.4,0,0,0,0,2.793Z"/><path d="M14.88,36.389H39.921a1.4,1.4,0,1,0,0-2.793H14.88a1.4,1.4,0,0,0,0,2.793Z"/><path d="M14.88,29.6H39.921a1.4,1.4,0,1,0,0-2.793H14.88a1.4,1.4,0,0,0,0,2.793Z"/><path d="M2.3,38.833a1.4,1.4,0,0,0,1.4-1.4v-.024a1.4,1.4,0,1,0-2.793,0v.024A1.4,1.4,0,0,0,2.3,38.833Z"/><path d="M48.388,38.2l-.02.02A1.4,1.4,0,1,0,50.34,40.2l.02-.02A1.4,1.4,0,0,0,48.388,38.2Z"/><path d="M14.88,22.8h4.339a1.4,1.4,0,0,0,0-2.793H14.88a1.4,1.4,0,0,0,0,2.793Z"/></g></g></g></svg>