<svg xmlns="http://www.w3.org/2000/svg" xmlns:xlink="http://www.w3.org/1999/xlink" width="127" height="99" viewBox="0 0 127 99"><defs><clipPath id="a"><rect width="71" height="71" transform="translate(3673 -8731)" fill="#fff" stroke="#707070" stroke-width="1"/></clipPath><clipPath id="b"><path d="M0-71H71V0H0Z"/></clipPath></defs><g transform="translate(-3645 8745)"><rect width="127" height="99" rx="10" transform="translate(3645 -8745)" fill="#fcc02d"/><g clip-path="url(#a)"><g transform="translate(3673 -8660)"><g clip-path="url(#b)"><g transform="translate(63.898 -69.96)"><path d="M0,0H-15.607a1.379,1.379,0,0,0-1.379,1.379v16.1a2.87,2.87,0,0,1-2.87,2.87H-32.631l-1.086.289-6.841,6.795L-41,28.722V66.05a2.87,2.87,0,0,0,2.87,2.87H0a2.87,2.87,0,0,0,2.87-2.87V2.87A2.87,2.87,0,0,0,0,0" fill="#d8694b"/></g><g transform="translate(28.307 -3.91)"><path d="M0,0V-43.551l-4.968,4.934-.444,1.288V0a2.87,2.87,0,0,0,2.87,2.87H2.87A2.87,2.87,0,0,1,0,0" fill="#c5573a"/></g><g transform="translate(61.212 -65.8)"><path d="M0,0H-12.905a1.4,1.4,0,0,0-1.4,1.4v9.239a1.4,1.4,0,0,0,1.4,1.4H0a1.4,1.4,0,0,0,1.4-1.4V1.4A1.4,1.4,0,0,0,0,0" fill="#c5573a"/></g><g transform="translate(61.212 -33.42)"><path d="M0,0H-12.905a1.4,1.4,0,0,0-1.4,1.4v9.239a1.4,1.4,0,0,0,1.4,1.4H0a1.4,1.4,0,0,0,1.4-1.4V1.4A1.4,1.4,0,0,0,0,0" fill="#c5573a"/></g><g transform="translate(61.212 -49.61)"><path d="M0,0H-12.905a1.4,1.4,0,0,0-1.4,1.4v9.238a1.4,1.4,0,0,0,1.4,1.4H0a1.4,1.4,0,0,0,1.4-1.4V1.4A1.4,1.4,0,0,0,0,0" fill="#c5573a"/></g><g transform="translate(61.212 -17.23)"><path d="M0,0H-12.905a1.4,1.4,0,0,0-1.4,1.4v9.239a1.4,1.4,0,0,0,1.4,1.4H0a1.4,1.4,0,0,0,1.4-1.4V1.4A1.4,1.4,0,0,0,0,0" fill="#c5573a"/></g><g transform="translate(52.181 -55.166)"><path d="M0,0V-9.238a1.4,1.4,0,0,1,1.4-1.4h-5.27a1.4,1.4,0,0,0-1.4,1.4V0a1.4,1.4,0,0,0,1.4,1.4H1.4A1.4,1.4,0,0,1,0,0" fill="#a94b30"/></g><g transform="translate(52.181 -22.786)"><path d="M0,0V-9.238a1.4,1.4,0,0,1,1.4-1.4h-5.27a1.4,1.4,0,0,0-1.4,1.4V0a1.4,1.4,0,0,0,1.4,1.4H1.4A1.4,1.4,0,0,1,0,0" fill="#a94b30"/></g><g transform="translate(52.181 -38.976)"><path d="M0,0V-9.238a1.4,1.4,0,0,1,1.4-1.4h-5.27a1.4,1.4,0,0,0-1.4,1.4V0a1.4,1.4,0,0,0,1.4,1.4H1.4A1.4,1.4,0,0,1,0,0" fill="#a94b30"/></g><g transform="translate(52.181 -6.596)"><path d="M0,0V-9.238a1.4,1.4,0,0,1,1.4-1.4h-5.27a1.4,1.4,0,0,0-1.4,1.4V0a1.4,1.4,0,0,0,1.4,1.4H1.4A1.4,1.4,0,0,1,0,0" fill="#a94b30"/></g><g transform="translate(41.355 -17.23)"><path d="M0,0H-12.905a1.4,1.4,0,0,0-1.4,1.4v9.239a1.4,1.4,0,0,0,1.4,1.4H0a1.4,1.4,0,0,0,1.4-1.4V1.4A1.4,1.4,0,0,0,0,0" fill="#c5573a"/></g><g transform="translate(41.355 -33.42)"><path d="M0,0H-12.905a1.4,1.4,0,0,0-1.4,1.4v9.239a1.4,1.4,0,0,0,1.4,1.4H0a1.4,1.4,0,0,0,1.4-1.4V1.4A1.4,1.4,0,0,0,0,0" fill="#c5573a"/></g><g transform="translate(41.355 -49.61)"><path d="M0,0H-10.089l-1.086.289-2.981,3.328-.144.595v6.422a1.4,1.4,0,0,0,1.4,1.4H0a1.4,1.4,0,0,0,1.4-1.4V1.4A1.4,1.4,0,0,0,0,0" fill="#c5573a"/></g><g transform="translate(32.324 -6.596)"><path d="M0,0V-9.238a1.4,1.4,0,0,1,1.4-1.4h-5.27a1.4,1.4,0,0,0-1.4,1.4V0a1.4,1.4,0,0,0,1.4,1.4H1.4A1.4,1.4,0,0,1,0,0" fill="#a94b30"/></g><g transform="translate(32.324 -22.786)"><path d="M0,0V-9.238a1.4,1.4,0,0,1,1.4-1.4h-5.27a1.4,1.4,0,0,0-1.4,1.4V0a1.4,1.4,0,0,0,1.4,1.4H1.4A1.4,1.4,0,0,1,0,0" fill="#a94b30"/></g><g transform="translate(32.324 -38.976)"><path d="M0,0V-9.238a1.4,1.4,0,0,1,1.4-1.4H-1.058l-1.086.289L-5.125-7.017l-.144.595V0a1.4,1.4,0,0,0,1.4,1.4H1.4A1.4,1.4,0,0,1,0,0" fill="#a94b30"/></g><g transform="translate(5.069 -52.192)"><path d="M0,0A2.87,2.87,0,0,0,0,4.059L10.241,14.3a3,3,0,0,0,4.238,0L27.314,1.466a2.87,2.87,0,0,0,0-4.059L17.072-12.834a3,3,0,0,0-4.238,0Z" fill="#d8694b"/></g><g transform="translate(7.9 -48.598)"><path d="M0,0,13.638-13.638a3.174,3.174,0,0,1,2.471-.922l-1.868-1.868a3,3,0,0,0-4.238,0L-2.831-3.594a2.87,2.87,0,0,0,0,4.058l1.95,1.95A3.042,3.042,0,0,1,0,0" fill="#c5573a"/></g><g transform="translate(19.036 -60.275)"><path d="M0,0-9.125,9.125a1.4,1.4,0,0,0,0,1.974l6.533,6.533a1.4,1.4,0,0,0,1.974,0L8.506,8.506a1.4,1.4,0,0,0,0-1.974L1.974,0A1.4,1.4,0,0,0,0,0" fill="#c5573a"/></g><g transform="translate(13.045 -47.49)"><path d="M0,0,9.7-9.7a1.476,1.476,0,0,1,.927-.429L7.965-12.785a1.4,1.4,0,0,0-1.974,0L-3.134-3.66a1.4,1.4,0,0,0,0,1.974l2.7,2.7A1.477,1.477,0,0,1,0,0" fill="#a94b30"/></g><g transform="translate(5.071 -52.192)"><path d="M0,0A2.87,2.87,0,0,0,0,4.059L10.241,14.3a3,3,0,0,0,4.238,0L27.314,1.466a2.87,2.87,0,0,0,0-4.059L17.072-12.834a3,3,0,0,0-4.238,0Z" fill="none" stroke="#000" stroke-linecap="round" stroke-linejoin="round" stroke-miterlimit="10" stroke-width="2.08"/></g><g transform="translate(61.213 -65.8)"><path d="M0,0H-12.905a1.4,1.4,0,0,0-1.4,1.4v9.239a1.4,1.4,0,0,0,1.4,1.4H0a1.4,1.4,0,0,0,1.4-1.4V1.4A1.4,1.4,0,0,0,0,0Z" fill="none" stroke="#000" stroke-linecap="round" stroke-linejoin="round" stroke-miterlimit="10" stroke-width="2.08"/></g><g transform="translate(61.213 -33.42)"><path d="M0,0H-12.905a1.4,1.4,0,0,0-1.4,1.4v9.239a1.4,1.4,0,0,0,1.4,1.4H0a1.4,1.4,0,0,0,1.4-1.4V1.4A1.4,1.4,0,0,0,0,0Z" fill="none" stroke="#000" stroke-linecap="round" stroke-linejoin="round" stroke-miterlimit="10" stroke-width="2.08"/></g><g transform="translate(19.037 -60.275)"><path d="M0,0-9.125,9.125a1.4,1.4,0,0,0,0,1.974l6.533,6.533a1.4,1.4,0,0,0,1.974,0L8.506,8.506a1.4,1.4,0,0,0,0-1.974L1.974,0A1.4,1.4,0,0,0,0,0Z" fill="none" stroke="#000" stroke-linecap="round" stroke-linejoin="round" stroke-miterlimit="10" stroke-width="2.08"/></g><g transform="translate(61.213 -49.61)"><path d="M0,0H-12.905a1.4,1.4,0,0,0-1.4,1.4v9.238a1.4,1.4,0,0,0,1.4,1.4H0a1.4,1.4,0,0,0,1.4-1.4V1.4A1.4,1.4,0,0,0,0,0Z" fill="none" stroke="#000" stroke-linecap="round" stroke-linejoin="round" stroke-miterlimit="10" stroke-width="2.08"/></g><g transform="translate(61.213 -17.23)"><path d="M0,0H-12.905a1.4,1.4,0,0,0-1.4,1.4v9.239a1.4,1.4,0,0,0,1.4,1.4H0a1.4,1.4,0,0,0,1.4-1.4V1.4A1.4,1.4,0,0,0,0,0Z" fill="none" stroke="#000" stroke-linecap="round" stroke-linejoin="round" stroke-miterlimit="10" stroke-width="2.08"/></g><g transform="translate(41.357 -17.23)"><path d="M0,0H-12.905a1.4,1.4,0,0,0-1.4,1.4v9.239a1.4,1.4,0,0,0,1.4,1.4H0a1.4,1.4,0,0,0,1.4-1.4V1.4A1.4,1.4,0,0,0,0,0Z" fill="none" stroke="#000" stroke-linecap="round" stroke-linejoin="round" stroke-miterlimit="10" stroke-width="2.08"/></g><g transform="translate(41.357 -49.61)"><path d="M0,0H-10.089L-14.3,4.212v6.422a1.4,1.4,0,0,0,1.4,1.4H0a1.4,1.4,0,0,0,1.4-1.4V1.4A1.4,1.4,0,0,0,0,0Z" fill="none" stroke="#000" stroke-linecap="round" stroke-linejoin="round" stroke-miterlimit="10" stroke-width="2.08"/></g><g transform="translate(32.478 -33.42)"><path d="M0,0H-4.026a1.4,1.4,0,0,0-1.4,1.4v9.239a1.4,1.4,0,0,0,1.4,1.4H8.879a1.4,1.4,0,0,0,1.4-1.4V1.4A1.4,1.4,0,0,0,8.879,0H4.854" fill="none" stroke="#000" stroke-linecap="round" stroke-linejoin="round" stroke-miterlimit="10" stroke-width="2.08"/></g><g transform="translate(66.769 -37.927)"><path d="M0,0V-29.164a2.87,2.87,0,0,0-2.87-2.87H-18.477a1.379,1.379,0,0,0-1.379,1.379v16.1a2.87,2.87,0,0,1-2.87,2.87H-35.5l-8.372,8.372V34.017A2.87,2.87,0,0,0-41,36.887H-2.87A2.87,2.87,0,0,0,0,34.017V4.854" fill="none" stroke="#000" stroke-linecap="round" stroke-linejoin="round" stroke-miterlimit="10" stroke-width="2.08"/></g></g></g></g></g></svg>