<svg xmlns="http://www.w3.org/2000/svg" xmlns:xlink="http://www.w3.org/1999/xlink" width="122" height="122" viewBox="0 0 122 122"><defs><clipPath id="a"><rect width="92" height="92" transform="translate(637 1348)" fill="#fff" stroke="#707070" stroke-width="1"/></clipPath><clipPath id="b"><path d="M0-92H92V0H0Z"/></clipPath></defs><g transform="translate(-622 -1333)"><circle cx="61" cy="61" r="61" transform="translate(622 1333)" fill="#fcc02d"/><g clip-path="url(#a)"><g transform="translate(637 1440)"><g clip-path="url(#b)"><g transform="translate(34.379 -75.437)"><path d="M0,0,7.8-14.539a1.282,1.282,0,0,1,2.259,0L17.852,0a1.283,1.283,0,0,1-1.13,1.889H1.13A1.283,1.283,0,0,1,0,0" fill="#8795de"/></g><g transform="translate(52.231 -75.437)"><path d="M0,0-7.8-14.539a1.281,1.281,0,0,0-2.259,0l-1.566,2.92L-5.391,0A1.283,1.283,0,0,1-6.52,1.889H-1.13A1.283,1.283,0,0,0,0,0" fill="#6c7fd8"/></g><g transform="translate(25.282 -51.941)"><path d="M0,0,6.977-13.011a1.282,1.282,0,0,1,1.13-.676H27.939a1.282,1.282,0,0,1,1.13.676L36.045,0a1.283,1.283,0,0,1-1.13,1.889H1.13A1.283,1.283,0,0,1,0,0" fill="#fee97d"/></g><g transform="translate(13.49 -27.68)"><path d="M0,0,6.977-13.011a1.282,1.282,0,0,1,1.13-.676H51.522a1.282,1.282,0,0,1,1.13.676L59.629,0A1.283,1.283,0,0,1,58.5,1.889H1.13A1.283,1.283,0,0,1,0,0" fill="#f58a97"/></g><g transform="translate(77.934 -16.615)"><path d="M0,0,7.173,13.378a1.283,1.283,0,0,1-1.13,1.889H-75.3a1.283,1.283,0,0,1-1.13-1.889L-69.259,0a1.282,1.282,0,0,1,1.13-.676h67A1.282,1.282,0,0,1,0,0" fill="#c9f6b0"/></g><g transform="translate(61.328 -51.94)"><path d="M0,0-2.315-4.318l-4.662-8.695a1.282,1.282,0,0,0-1.13-.677H-13.5a1.282,1.282,0,0,1,1.13.677L-8.313-5.45a2.7,2.7,0,0,1-1.17,3.683A30.523,30.523,0,0,0-15.1,1.889H-1.13A1.282,1.282,0,0,0,0,0" fill="#f4da6e"/></g><g transform="translate(66.142 -40.692)"><path d="M0,0A1.282,1.282,0,0,0-1.13-.676H-27.205a30.313,30.313,0,0,0-3.9,14.908c0,.224,0,.446.008.669H5.847a1.283,1.283,0,0,0,1.13-1.889Z" fill="#f07281"/></g><g transform="translate(85.108 -3.237)"><path d="M0,0-7.173-13.378a1.281,1.281,0,0,0-1.13-.676H-48.662a30.633,30.633,0,0,0,11.8,15.943H-1.13A1.283,1.283,0,0,0,0,0" fill="#9be69d"/></g><g transform="translate(90.652 -26.46)"><path d="M0,0A25.112,25.112,0,0,1-25.112,25.112,25.112,25.112,0,0,1-50.225,0,25.112,25.112,0,0,1-25.112-25.112,25.112,25.112,0,0,1,0,0" fill="#f9f7f8"/></g><g transform="translate(65.54 -51.572)"><path d="M0,0A25.394,25.394,0,0,0-2.7.144,25.115,25.115,0,0,1,19.722,25.112,25.115,25.115,0,0,1-2.7,50.08a25.443,25.443,0,0,0,2.7.144A25.112,25.112,0,0,0,25.112,25.112,25.112,25.112,0,0,0,0,0" fill="#e2dee2"/></g><g transform="translate(78.052 -12.208)"><path d="M0,0H-25.023a2.044,2.044,0,0,1-2.044-2.044v-10.2H2.044v10.2A2.044,2.044,0,0,1,0,0" fill="#ecbba3"/></g><g transform="translate(74.705 -24.454)"><path d="M0,0V10.2a2.044,2.044,0,0,1-2.044,2.044H3.346A2.044,2.044,0,0,0,5.391,10.2V0Z" fill="#e8ad8c"/></g><g transform="translate(80.352 -36.72)"><path d="M0,0H-29.623a2.044,2.044,0,0,0-2.044,2.044v8.178a2.044,2.044,0,0,0,2.044,2.044H0a2.044,2.044,0,0,0,2.044-2.044V2.044A2.044,2.044,0,0,0,0,0" fill="#e19974"/></g><g transform="translate(80.352 -36.72)"><path d="M0,0H-5.391A2.044,2.044,0,0,1-3.346,2.044v8.178a2.044,2.044,0,0,1-2.044,2.044H0a2.044,2.044,0,0,0,2.044-2.044V2.044A2.044,2.044,0,0,0,0,0" fill="#dc8758"/></g><g transform="translate(69.921 -21.607)"><path d="M0,0H-8.761a.886.886,0,0,1-.886-.886V-4.808a.886.886,0,0,1,.886-.886H0a.886.886,0,0,1,.886.886V-.886A.886.886,0,0,1,0,0" fill="#7a6d79"/></g><g transform="translate(69.921 -27.301)"><path d="M0,0H-5.391A.886.886,0,0,1-4.5.886V4.808a.886.886,0,0,1-.886.886H0a.886.886,0,0,0,.886-.886V.886A.886.886,0,0,0,0,0" fill="#685e68"/></g><g transform="translate(34.379 -75.437)"><path d="M0,0,7.8-14.539a1.282,1.282,0,0,1,2.259,0L17.852,0a1.283,1.283,0,0,1-1.13,1.889H1.13A1.283,1.283,0,0,1,0,0Z" fill="none" stroke="#000" stroke-linecap="round" stroke-linejoin="round" stroke-miterlimit="10" stroke-width="2.695"/></g><g transform="translate(38.556 -50.052)"><path d="M0,0H18.36" fill="none" stroke="#000" stroke-linecap="round" stroke-linejoin="round" stroke-miterlimit="10" stroke-width="2.695"/></g><g transform="translate(61.478 -51.245)"><path d="M0,0A1.263,1.263,0,0,0-.151-.7L-7.128-13.706a1.282,1.282,0,0,0-1.13-.678h-19.83a1.282,1.282,0,0,0-1.13.678L-36.2-.7a1.282,1.282,0,0,0,1.13,1.889h5.855" fill="none" stroke="#000" stroke-linecap="round" stroke-linejoin="round" stroke-miterlimit="10" stroke-width="2.695"/></g><g transform="translate(45.328 -41.368)"><path d="M0,0H-23.731a1.282,1.282,0,0,0-1.13.676l-6.975,13.011a1.283,1.283,0,0,0,1.128,1.89H-4.891" fill="none" stroke="#000" stroke-linecap="round" stroke-linejoin="round" stroke-miterlimit="10" stroke-width="2.695"/></g><g transform="translate(42.155 -17.291)"><path d="M0,0H-32.349a1.284,1.284,0,0,0-1.13.676l-7.173,13.38a1.282,1.282,0,0,0,1.128,1.888H41.824a1.282,1.282,0,0,0,1.128-1.888L40.4,9.3" fill="none" stroke="#000" stroke-linecap="round" stroke-linejoin="round" stroke-miterlimit="10" stroke-width="2.695"/></g><g transform="translate(88.385 -16.017)"><path d="M0,0A25.117,25.117,0,0,1-22.845,14.669,25.112,25.112,0,0,1-47.957-10.443,25.112,25.112,0,0,1-22.845-35.555,25.112,25.112,0,0,1,2.268-10.443a25.268,25.268,0,0,1-.4,4.464" fill="none" stroke="#000" stroke-linecap="round" stroke-linejoin="round" stroke-miterlimit="10" stroke-width="2.695"/></g><g transform="translate(73.187 -36.72)"><path d="M0,0H-15.293V-4.42a2.044,2.044,0,0,1,2.044-2.044h11.2A2.044,2.044,0,0,1,0-4.42Z" fill="none" stroke="#000" stroke-linecap="round" stroke-linejoin="round" stroke-miterlimit="10" stroke-width="2.695"/></g><g transform="translate(80.096 -24.454)"><path d="M0,0V10.2a2.044,2.044,0,0,1-2.044,2.044H-27.068A2.044,2.044,0,0,1-29.112,10.2V0" fill="none" stroke="#000" stroke-linecap="round" stroke-linejoin="round" stroke-miterlimit="10" stroke-width="2.695"/></g><g transform="translate(70.806 -24.454)"><path d="M0,0H9.545A2.045,2.045,0,0,0,11.59-2.045v-8.178a2.045,2.045,0,0,0-2.045-2.045H-20.076a2.045,2.045,0,0,0-2.045,2.045v8.178A2.045,2.045,0,0,0-20.076,0h9.545" fill="none" stroke="#000" stroke-linecap="round" stroke-linejoin="round" stroke-miterlimit="10" stroke-width="2.695"/></g><g transform="translate(69.921 -21.607)"><path d="M0,0H-8.761a.886.886,0,0,1-.886-.886V-4.808a.886.886,0,0,1,.886-.886H0a.886.886,0,0,1,.886.886V-.886A.886.886,0,0,1,0,0Z" fill="none" stroke="#000" stroke-linecap="round" stroke-linejoin="round" stroke-miterlimit="10" stroke-width="2.695"/></g></g></g></g></g></svg>