<svg xmlns="http://www.w3.org/2000/svg" xmlns:xlink="http://www.w3.org/1999/xlink" width="87.263" height="63.988" viewBox="0 0 87.263 63.988"><defs><clipPath id="a"><rect width="87.263" height="63.988" fill="none"/></clipPath><clipPath id="c"><rect width="41.693" height="45.094" fill="none"/></clipPath><clipPath id="d"><path d="M19.124,10.66,4.816,21.6A13.286,13.286,0,0,0,.167,34.077L1.879,44.983c.833,5.3,4.444,9.476,9.065,10.379l31.641,6.18A17.074,17.074,0,0,0,56.223,58.29L75.171,43.912A13.094,13.094,0,0,0,79.754,29.49l-3.109-9.516a13.687,13.687,0,0,0-11.191-9.449L34.716,6.347a19.856,19.856,0,0,0-2.683-.182A21.272,21.272,0,0,0,19.124,10.66" transform="translate(0 -6.165)" fill="none"/></clipPath><clipPath id="f"><path d="M26.964,38.736l.171.117c0,.033-.009.049-.028.049-.035,0-.1-.055-.143-.167m16.316-.231h0M16.431,35.481c.025.013.044.026.043.035Zm-.215-.051-.016,0s0,0,.016,0m-10.971-4.4-.006,0c-.028.019-.023.012-.016,0l.009-.008a.048.048,0,0,1,.013,0M76.217,15.62c0-.048.009-.038,0,0m-7.588-4.345.022,0-.022,0M55.1,6.537a.113.113,0,0,1,.035.03.463.463,0,0,1-.035-.03M43.248,0c-.1,0-.205,0-.306.012a15.712,15.712,0,0,0-6.449,2.239C27,7.483,18.989,15.367,11.951,23.653c-1.748,2.057-3.1,4.405-5.2,6.021a.327.327,0,0,1-.515-.337c.8-3.6,3.106-6.72,5.578-9.47A75.3,75.3,0,0,1,33.265,3.586,2.09,2.09,0,0,0,34.44,1.707C34.389.2,32.642-.089,31.33.09A23.44,23.44,0,0,0,23.65,2.869a60.288,60.288,0,0,0-12.673,9A61.035,61.035,0,0,0,5.527,17.6Q4.259,19.122,3.09,20.725c-.559.767-1.572,1.439-1.866,2.379a.959.959,0,0,0,1.16,1.216c.558-.117.936-1.006,1.3-1.528q1.335-1.9,2.827-3.681a55.763,55.763,0,0,1,6.679-6.718A55.086,55.086,0,0,1,29.219,2.9C20.479,7.832,11.441,13.034,5.671,21.3a18.216,18.216,0,0,0-3.509,8.435c-.208,2.076.329,4.567,2.686,5.038a3.439,3.439,0,0,0,1.42-.03,8.284,8.284,0,0,0,4.005-2.75c9.017-9.416,17.113-21.674,29.309-27.222-2.8,1.907-3.66,2.558-5.472,3.855-2.015,1.443-4.231,3.38-6.1,5.009a58.279,58.279,0,0,0-12.2,14.18,19.857,19.857,0,0,0-2.475,6.655c-.21,1.2-.265,2.508,1.039,3.407a3.39,3.39,0,0,0,2.776.439c1.887-.494,3.144-2.077,4.315-3.582A139.018,139.018,0,0,1,35.945,18.212,67.407,67.407,0,0,1,42.087,13.1q1.155-.847,2.35-1.636A50.793,50.793,0,0,1,49.1,8.719c1.345-.695,3.028-1.926,4.629-2.041a8.468,8.468,0,0,1-1.275,1.158q-1.077.8-2.177,1.568c-1.531,1.076-3.085,2.117-4.637,3.162-3.1,2.085-6.209,4.176-9.117,6.535C30.5,23.99,25.176,30.374,24,38.168a3.723,3.723,0,0,0,.57,2.709c1.381,1.95,3.6,1.188,5.23.188,3.292-2.012,5.941-4.91,8.587-7.73,8.248-8.791,17.261-17.429,28.474-21.681a.1.1,0,0,1,.1.167c-4.366,3.588-9.262,6.464-13.876,9.725-4.77,3.372-9.341,7.271-12.279,12.347a10.723,10.723,0,0,0-1.541,4.132,4.512,4.512,0,0,0,5.724,5.193,11.681,11.681,0,0,0,4.264-2.073c4.775-3.34,8.66-7.748,12.552-12.054,1.95-2.158,3.911-4.311,6.013-6.319,1.7-1.62,4.085-4.283,6.374-5.153a.167.167,0,0,1,.2.232c-1.18,2.322-3.613,4.077-5.4,5.86-2.068,2.067-4.227,4.038-6.4,5.988-.938.841-.518,2.714.786,1.74,2.475-1.848,4.88-3.78,7.2-5.82,2.244-1.971,5.113-4.095,6.856-6.541A7.069,7.069,0,0,0,79.041,16.9a2.852,2.852,0,0,0,.223-1.254,2.429,2.429,0,0,0-2.426-2.13c-1.885-.189-3.808.819-5.331,1.832-7.827,5.21-13.875,12.666-20.857,18.981a17.313,17.313,0,0,1-5.776,3.838.414.414,0,0,1-.487-.593c2.542-4.538,6.546-8.112,10.769-11.144,4.486-3.22,9.313-5.953,13.633-9.4a12.365,12.365,0,0,0,3.521-3.872,5.025,5.025,0,0,0-.07-5.039,4.918,4.918,0,0,0-4.316-1.844,12.435,12.435,0,0,0-4.643,1.451c-13.565,6.528-24.045,18-34.13,29.261a.23.23,0,0,1-.4-.171,9.19,9.19,0,0,1,1.77-4.33c6.093-9.208,15.94-15,24.719-21.643a8.038,8.038,0,0,0,3.272-3.866,3.282,3.282,0,0,0-.086-2.239c-.974-2.257-3.87-2.1-6.044-1.424-6.811,2.129-12.485,6.847-17.9,11.532-5.078,4.4-10.167,8.943-13.769,14.634a22.412,22.412,0,0,1-3.708,5.084.222.222,0,0,1-.362-.2,16.615,16.615,0,0,1,2.864-6.566c6.04-9.11,15.249-15.5,24.261-21.618A6.376,6.376,0,0,0,46.41,3.481a2.56,2.56,0,0,0,.183-1.294C46.378.578,44.829.019,43.386,0Z" transform="translate(-1.177 -0.001)" fill="none"/></clipPath></defs><g transform="translate(-925.777 -367.914)"><g transform="translate(925.777 367.914)"><g clip-path="url(#a)"><g transform="translate(0 0)"><g clip-path="url(#a)"><path d="M1.88,44.983.167,34.077A13.284,13.284,0,0,1,4.817,21.6L19.125,10.66A20.985,20.985,0,0,1,34.717,6.347l30.738,4.177a13.687,13.687,0,0,1,11.191,9.449l3.108,9.516a13.093,13.093,0,0,1-4.583,14.422L56.223,58.291a17.076,17.076,0,0,1-13.638,3.251l-31.64-6.18c-4.621-.9-8.233-5.076-9.066-10.379" transform="translate(0 -2.752)" fill="#6a2a07"/><path d="M19.519,9.869,5.275,20.372S-1.641,25.969.7,32.42c1.459,4.018,23.882,6.38,35.712,8.992q.523.115,1.034.211a26.439,26.439,0,0,0,22.037-6.408c4.374-3.772,10.594-9.21,13.784-12.332,3.358-3.286,1.258-8.118.037-9.538C70.146,9.673,61.161,9.32,61.161,9.32L33.893,5.535s-7.07-1.248-14.374,4.334" transform="translate(-0.097 -2.418)" fill="#c35b26"/><g transform="translate(38.905 13.918)" opacity="0.5" style="mix-blend-mode:multiply;isolation:isolate"><g clip-path="url(#c)"><path d="M108.018,28.445s-1.057-2.9-6.506-3.3S73.4,43.4,73.4,43.4a15.736,15.736,0,0,0-2.936,7.614c-1.156,9.313,3.5,19,3.5,19S83.3,71.505,87.6,66.762l18.948-14.379s6.148-4.029,5.356-13.405Z" transform="translate(-70.277 -25.142)" fill="#c35b26"/></g></g></g></g><g transform="translate(0 3.413)"><g clip-path="url(#d)"><path d="M79.489,12.359s9.056,15.527-3.777,31.68c-10.793,13.587-23.527,24.077-40.5,20.931-3.965-.735-17.135-4.308-24.184-5.889L25.3,67.908l44.412,1.6,18.805-23.6L92.188,28.3Z" transform="translate(-4.924 -8.93)"/></g></g><g transform="translate(0 0)"><g clip-path="url(#a)"><path d="M79.592,15.641a2.427,2.427,0,0,0-2.426-2.129c-1.886-.189-3.809.818-5.331,1.832-7.827,5.209-13.876,12.666-20.857,18.98A17.316,17.316,0,0,1,45.2,38.162a.414.414,0,0,1-.487-.593c2.543-4.538,6.546-8.112,10.77-11.144,4.485-3.22,9.313-5.952,13.632-9.4a12.364,12.364,0,0,0,3.522-3.872,5.026,5.026,0,0,0-.07-5.039,4.917,4.917,0,0,0-4.315-1.843,12.421,12.421,0,0,0-4.643,1.45c-13.566,6.528-24.045,18-34.13,29.261a.23.23,0,0,1-.4-.171,9.2,9.2,0,0,1,1.77-4.33c6.093-9.208,15.94-15,24.719-21.643a8.035,8.035,0,0,0,3.272-3.866,3.277,3.277,0,0,0-.086-2.238c-.974-2.257-3.87-2.1-6.043-1.424C45.9,5.44,40.23,10.159,34.819,14.844c-5.078,4.4-10.167,8.943-13.77,14.634a22.354,22.354,0,0,1-3.708,5.084.222.222,0,0,1-.361-.2A16.616,16.616,0,0,1,19.844,27.8c6.04-9.11,15.249-15.5,24.262-21.619A6.381,6.381,0,0,0,46.74,3.482a2.568,2.568,0,0,0,.183-1.294C46.685.41,44.823-.086,43.271.012a15.717,15.717,0,0,0-6.449,2.239c-9.491,5.231-17.5,13.115-24.542,21.4-1.747,2.057-3.1,4.406-5.2,6.022a.327.327,0,0,1-.515-.337c.8-3.6,3.106-6.72,5.578-9.471A75.333,75.333,0,0,1,33.594,3.585a2.091,2.091,0,0,0,1.175-1.878c-.05-1.507-1.8-1.8-3.11-1.618a23.424,23.424,0,0,0-7.68,2.779,60.26,60.26,0,0,0-12.673,9A61.109,61.109,0,0,0,5.855,17.6Q4.587,19.122,3.42,20.725a9.737,9.737,0,0,0-1.44,2.659c-.231.74.181,1.33.734.935a6.9,6.9,0,0,0,1.2-1.6C4.8,21.456,5.85,20.3,6.843,19.11a55.768,55.768,0,0,1,6.679-6.719A55.081,55.081,0,0,1,29.548,2.9C20.808,7.832,11.77,13.033,6,21.3a18.21,18.21,0,0,0-3.509,8.435c-.208,2.076.329,4.567,2.685,5.038a3.442,3.442,0,0,0,1.421-.03,8.287,8.287,0,0,0,4.005-2.75C19.62,22.572,27.715,10.314,39.912,4.766c-2.8,1.907-3.66,2.558-5.472,3.855-2.015,1.443-4.231,3.38-6.1,5.009a58.282,58.282,0,0,0-12.2,14.18,19.861,19.861,0,0,0-2.475,6.654c-.21,1.2-.265,2.509,1.039,3.407a3.391,3.391,0,0,0,2.776.439c1.887-.494,3.144-2.077,4.315-3.582A138.963,138.963,0,0,1,36.274,18.212a64.5,64.5,0,0,1,8.493-6.753,50.942,50.942,0,0,1,4.662-2.74c1.345-.695,3.028-1.926,4.629-2.041a8.525,8.525,0,0,1-1.274,1.159q-1.078.8-2.177,1.568c-1.531,1.076-3.085,2.118-4.638,3.162-3.1,2.086-6.209,4.176-9.117,6.535C30.824,23.99,25.505,30.374,24.329,38.168a3.723,3.723,0,0,0,.571,2.709c1.381,1.95,3.6,1.188,5.23.188,3.291-2.012,5.941-4.91,8.587-7.73,8.248-8.792,17.261-17.43,28.474-21.681a.1.1,0,0,1,.1.167c-4.366,3.588-9.261,6.464-13.876,9.726-4.77,3.371-9.341,7.271-12.278,12.347a10.714,10.714,0,0,0-1.541,4.132,4.511,4.511,0,0,0,5.724,5.193,11.679,11.679,0,0,0,4.263-2.073c4.775-3.339,8.661-7.748,12.552-12.054,1.95-2.158,3.912-4.31,6.014-6.32,1.695-1.619,4.084-4.283,6.373-5.152a.167.167,0,0,1,.2.232c-1.18,2.322-3.612,4.077-5.4,5.86-2.068,2.067-4.227,4.038-6.4,5.988-.939.841-.518,2.714.786,1.74,2.475-1.848,4.881-3.78,7.2-5.82,2.243-1.971,5.112-4.095,6.856-6.541A7.078,7.078,0,0,0,79.37,16.9a2.858,2.858,0,0,0,.222-1.254M5.561,31.033a.1.1,0,0,1,.013,0l-.006,0c-.047.031,0-.007-.007,0m10.984,4.4c-.024.007-.022,0,0,0m.215.051c.025.013.044.026.043.035ZM55.431,6.537c.022.016.036.028.034.031s-.012-.008-.034-.031m-28.137,32.2.171.117c.006.094-.1.055-.171-.117M68.958,11.275c.028,0,.03.007,0,0M43.609,38.505h0c-.016,0-.047,0,0,0M76.546,15.619c0-.048.01-.038,0,0" transform="translate(-0.854 0)" fill="#fef8e1"/></g></g><g transform="translate(0.652 0.001)"><g clip-path="url(#f)"><path d="M79.164,54.354A25.606,25.606,0,0,1,87.838,43.3c6.482-4.724,10.983-6.014,10.983-6.014L82.491,51.68Z" transform="translate(-35.991 -16.647)"/><path d="M120.282,36.131s7.508-9.045,9.1-7.986-8.658,8.781-8.658,8.781Z" transform="translate(-54.346 -12.526)"/><path d="M96.641,26.687s11.01-8.958,13.684-9.476c3.952-.765,5.06,2.378-11.887,9.877" transform="translate(-43.793 -7.634)"/><path d="M49.722,51.279c-3.324,3.107-3.729-3.317,5.028-9.513a126.128,126.128,0,0,0,12.392-9.9Z" transform="translate(-21.871 -14.224)"/><path d="M36.146,47.768s5.379-9.022,8.27-11.875,11.4-9.522,11.4-9.522l-4.83,5.138-6.059,5.66Z" transform="translate(-16.787 -11.773)"/><path d="M55.938,11.094s7.154-8.48,10.615-8.639S64.576,5.42,55.938,11.094" transform="translate(-25.623 -1.094)"/><path d="M16.778,44.276S20.9,37.7,23.01,35.068a38.4,38.4,0,0,1,10.612-9.29S23.1,36.058,21.334,39.961s-4.556,4.316-4.556,4.316" transform="translate(-8.141 -11.508)"/><path d="M11.578,37.943s-3.264,6.982-4.965,5.983,3.908-12.8,12.235-15.636Z" transform="translate(-3.467 -12.629)"/><path d="M29.074,10.616s11.414-9.159,14.895-8.99c3.848.188-2.517.963-14.895,8.99" transform="translate(-13.63 -0.725)"/><path d="M82.722,14.194s8.2-6.539,9.5-6.147-3.179,3.095-3.96,3.726a45.279,45.279,0,0,1-5.541,2.421" transform="translate(-37.579 -3.585)"/><path d="M71.638,73.569s4.3,2.217,11.748-2.963l-.809,5.287-8.783,3.447Z" transform="translate(-32.631 -31.52)"/><path d="M119.544,45.535s-8.257,6.422-8.869,4.878-1.175,1.976-1.175,1.976l3.9.454,3.615-4.035Z" transform="translate(-49.533 -20.328)"/></g></g></g></g></g></svg>