<svg xmlns="http://www.w3.org/2000/svg" xmlns:xlink="http://www.w3.org/1999/xlink" width="79.166" height="64.174" viewBox="0 0 79.166 64.174"><defs><clipPath id="a"><rect width="79.166" height="64.174" fill="none"/></clipPath><clipPath id="b"><path d="M36.571,4.744C21.249,7.079,13.286,14.872,13.286,14.872S-8.585,31.814,10.842,54.6s48.886-3.519,56.779-8.972S76,33.43,76.767,28.772c.69-4.173-7.1-24.927-31.138-24.928a48.322,48.322,0,0,0-9.058.9" transform="translate(-2.799 -3.844)" fill="none"/></clipPath></defs><g transform="translate(13264.298 11328)"><g transform="translate(-13264.298 -11328)"><g transform="translate(0 0)"><g clip-path="url(#a)"><path d="M13.286,14.871S-8.584,31.813,10.843,54.6s48.886-3.519,56.779-8.972S76,33.43,76.767,28.772,67.746-1.207,36.572,4.744C21.25,7.079,13.286,14.871,13.286,14.871" transform="translate(-0.658 -0.903)" fill="#6a2a07"/><path d="M13.571,33.258a44.322,44.322,0,0,0-1.289,6.6,33.141,33.141,0,0,0-.157,6.651,23.041,23.041,0,0,0,1.436,6.436,21.707,21.707,0,0,0,3.327,5.762l0,0a.229.229,0,0,1-.336.311,17.332,17.332,0,0,1-4.091-5.612A17.852,17.852,0,0,1,11.293,50.1a20.789,20.789,0,0,1-.589-3.462,25.763,25.763,0,0,1,.337-6.961,25.275,25.275,0,0,1,2.107-6.593.229.229,0,0,1,.427.163Z" transform="translate(-2.491 -7.743)" fill="#fef8e1"/></g></g><g transform="translate(2.141 2.941)"><g clip-path="url(#b)"><path d="M76.337,7.263s16.381,31.977-22,57.978c0,0,67.119-26.084,22-57.978" transform="translate(-14.907 -4.647)"/></g></g><g transform="translate(0 0)"><g clip-path="url(#a)"><path d="M17.812,53.56c1.1,4.052,6.435,6.75,8.869,6.142s3.513-4.385,2.41-8.437-3.971-6.843-6.406-6.236-5.977,4.479-4.873,8.531" transform="translate(-4.136 -10.56)"/><path d="M16.015,53.852c1.1,4.052,6.435,6.75,8.869,6.142s3.513-4.384,2.41-8.437-3.971-6.843-6.406-6.236-5.977,4.479-4.873,8.531" transform="translate(-3.714 -10.629)" fill="#c35b26"/><path d="M54.661,71.8c3.9-.23,7.591-3.1,7.627-4.6S59.2,64.657,55.3,64.886s-7.086,1.635-7.123,3.138,2.587,4,6.484,3.773" transform="translate(-11.319 -15.238)"/><path d="M52.852,72.088c3.9-.23,7.591-3.1,7.627-4.6s-3.092-2.536-6.989-2.307-7.086,1.635-7.123,3.138,2.587,4,6.484,3.773" transform="translate(-10.894 -15.306)" fill="#c35b26"/><path d="M55.244,41c-2.371-1.7-6.533-1.523-7.64-.527s-.081,3.182,2.29,4.883,5.189,2.272,6.295,1.276S57.615,42.7,55.244,41" transform="translate(-11.08 -9.332)"/><path d="M53.864,41.405c-2.371-1.7-6.533-1.523-7.64-.527s-.081,3.182,2.29,4.883,5.189,2.272,6.3,1.276,1.425-3.931-.946-5.631" transform="translate(-10.756 -9.428)" fill="#c35b26"/><path d="M39.137,5.2c-4.037.871-7.2,4.388-6.87,5.918s3.879,2.063,7.917,1.191,7.039-2.818,6.7-4.349S43.174,4.329,39.137,5.2" transform="translate(-7.576 -1.174)"/><path d="M37.715,4.652c-4.037.872-7.205,4.388-6.87,5.918s3.879,2.063,7.917,1.191,7.039-2.818,6.7-4.348-3.714-3.632-7.751-2.761" transform="translate(-7.241 -1.045)" fill="#c35b26"/><path d="M78.6,17.433c2.461,1.177,3.665,3.124,2.69,4.352s-2.116,2.053-4.577.877-4.234-3.4-3.258-4.623,2.685-1.782,5.146-.605" transform="translate(-17.195 -3.943)"/><path d="M77.1,18.473c2.461,1.177,3.665,3.124,2.69,4.351s-2.116,2.054-4.577.878-4.234-3.4-3.258-4.623,2.685-1.782,5.146-.605" transform="translate(-16.841 -4.188)" fill="#c35b26"/><path d="M65.433,1.744c3.928-.371,7.159.939,7.217,2.926S72.2,8.32,68.271,8.69,60.2,7.837,60.145,5.85,61.5,2.115,65.433,1.744" transform="translate(-14.131 -0.395)"/><path d="M65.433.063C69.36-.308,72.591,1,72.65,2.989s-.451,3.65-4.379,4.02S60.2,6.156,60.145,4.169,61.5.433,65.433.063" transform="translate(-14.131 0)" fill="#c35b26"/><path d="M31.694,75.862c2.461,1.177,3.665,3.124,2.69,4.351s-2.116,2.054-4.577.878-4.234-3.4-3.258-4.623,2.685-1.782,5.146-.605" transform="translate(-6.174 -17.672)"/><path d="M29.951,76.107c2.461,1.177,3.665,3.124,2.69,4.351s-2.116,2.054-4.577.878-4.234-3.4-3.258-4.623,2.685-1.782,5.146-.605" transform="translate(-5.764 -17.729)" fill="#c35b26"/><path d="M27.384,26.64a3.745,3.745,0,0,1-2.872,4.5c-2.076.481-3.828.587-4.317-1.416a4.164,4.164,0,0,1,2.759-4.962c2.076-.481,3.941-.124,4.43,1.879" transform="translate(-4.719 -5.773)"/><path d="M25.526,26.257a3.745,3.745,0,0,1-2.872,4.5c-2.076.481-3.828.587-4.316-1.416A4.162,4.162,0,0,1,21.1,24.378c2.075-.481,3.94-.124,4.43,1.879" transform="translate(-4.283 -5.683)" fill="#c35b26"/><path d="M7.216,39.932C7.8,42.334,6.9,44.6,5.21,44.993s-3.151.371-3.738-2.031.175-5.223,1.87-5.616,3.287.184,3.874,2.587" transform="translate(-0.3 -8.748)"/><path d="M5.94,39.353c.587,2.4-.311,4.668-2.006,5.062S.783,44.785.2,42.382s.175-5.223,1.87-5.616,3.287.184,3.874,2.587" transform="translate(0 -8.612)" fill="#c35b26"/><path d="M82.824,48.4c-2.09-.37-3.082-2.543-2.216-4.853s1.865-4.13,3.955-3.759a3.654,3.654,0,0,1,2.7,4.939c-.866,2.31-2.348,4.043-4.438,3.673" transform="translate(-18.866 -9.337)" fill="#c35b26"/><path d="M50.617,27.181c-1.748-.31-2.776-1.6-2.294-2.884s1.12-2.279,2.868-1.969,3.18,1.672,2.7,2.956a2.74,2.74,0,0,1-3.272,1.9" transform="translate(-11.326 -5.233)"/><path d="M50.051,26.622c-1.748-.31-2.776-1.6-2.294-2.884s1.12-2.279,2.868-1.969,3.18,1.673,2.7,2.956a2.74,2.74,0,0,1-3.272,1.9" transform="translate(-11.193 -5.101)" fill="#c35b26"/><path d="M22.892,72.164c.656.647,1.388,1.033,1.635.862s-.083-.835-.738-1.482-1.388-1.033-1.635-.861.083.834.738,1.481" transform="translate(-5.186 -16.598)" fill="#fef8e1"/><path d="M26.886,80.5c.513.507,1.1.8,1.317.65s-.03-.678-.543-1.185-1.1-.8-1.317-.65.03.678.543,1.185" transform="translate(-6.171 -18.626)" fill="#fef8e1"/><path d="M1.37,42.14c.133.833.457,1.47.722,1.423s.373-.761.239-1.594-.457-1.47-.722-1.423-.373.761-.239,1.594" transform="translate(-0.309 -9.526)" fill="#fef8e1"/><path d="M52.836,72.8c.483.063.914-.016.962-.176s-.3-.34-.785-.4-.914.016-.963.176.3.34.786.4" transform="translate(-12.229 -16.964)" fill="#fef8e1"/><path d="M21.317,26.051a6.679,6.679,0,0,0-.564,2,3.91,3.91,0,0,0,.044,1,9.7,9.7,0,0,0,.249,1.063l0,.011a.141.141,0,0,1-.234.138,2.82,2.82,0,0,1-.7-1.011,2.77,2.77,0,0,1-.21-1.262,2.647,2.647,0,0,1,1.222-2.131.141.141,0,0,1,.2.174Z" transform="translate(-4.675 -6.071)" fill="#fef8e1"/><path d="M47.909,43.093c.467.389.959.752,1.441,1.1a17.642,17.642,0,0,0,1.5.973,18.3,18.3,0,0,0,3.292,1.466l.006,0a.139.139,0,0,1-.048.269,6.811,6.811,0,0,1-1.9-.257,7.681,7.681,0,0,1-1.779-.738,6.86,6.86,0,0,1-2.735-2.655.139.139,0,0,1,.211-.172Z" transform="translate(-11.201 -10.116)" fill="#fef8e1"/><path d="M17.76,53.429a17.518,17.518,0,0,0,1.49,2.941,12.511,12.511,0,0,0,2.164,2.48l.005.005a.139.139,0,0,1-.147.23,5.445,5.445,0,0,1-1.532-.906,6.013,6.013,0,0,1-1.2-1.337,5.725,5.725,0,0,1-1.05-3.379.139.139,0,0,1,.268-.048Z" transform="translate(-4.108 -12.53)" fill="#fef8e1"/><path d="M50.849,67.7c-.359.182-.713.363-1.016.546a1.137,1.137,0,0,0-.557.569c-.06.162.086.467.275.766.21.3.464.6.711.926l.006.008a.141.141,0,0,1-.169.213,3.761,3.761,0,0,1-1.089-.681,2.164,2.164,0,0,1-.434-.567,1.256,1.256,0,0,1-.139-.835,1.554,1.554,0,0,1,1.078-1.083,2.806,2.806,0,0,1,1.3-.136.142.142,0,0,1,.049.267Z" transform="translate(-11.376 -15.838)" fill="#fef8e1"/><path d="M64.8,2.887c-.36.182-.713.363-1.016.546A1.139,1.139,0,0,0,63.229,4c-.059.162.087.467.275.766.211.3.464.6.712.926l.006.008a.141.141,0,0,1-.169.213,3.761,3.761,0,0,1-1.089-.681,2.166,2.166,0,0,1-.435-.567,1.26,1.26,0,0,1-.138-.835A1.552,1.552,0,0,1,63.469,2.75a2.805,2.805,0,0,1,1.3-.136.142.142,0,0,1,.049.267Z" transform="translate(-14.654 -0.609)" fill="#fef8e1"/></g></g></g></g></svg>