<svg xmlns="http://www.w3.org/2000/svg" xmlns:xlink="http://www.w3.org/1999/xlink" width="85.841" height="68.753" viewBox="0 0 85.841 68.753"><defs><clipPath id="a"><rect width="85.841" height="68.753" fill="none"/></clipPath><clipPath id="c"><rect width="74.234" height="38.342" fill="none"/></clipPath><clipPath id="d"><rect width="39.596" height="36.919" fill="none"/></clipPath><clipPath id="e"><path d="M25.1,6.331l-16.318,6.6A12.846,12.846,0,0,0,1.222,23.448L.08,34.114A14.192,14.192,0,0,0,0,35.586v.055c.009,4.59,2.3,8.7,6.032,10.528L34.42,60.057a16.868,16.868,0,0,0,13.735.439l21.581-8.641A12.653,12.653,0,0,0,77.73,39.5L77.2,29.779A13.389,13.389,0,0,0,69,18.053L40.957,6.274a19.935,19.935,0,0,0-7.743-1.548A21.636,21.636,0,0,0,25.1,6.331" transform="translate(0 -4.726)" fill="none"/></clipPath><clipPath id="g"><path d="M41.371,39.218c-.015,0-.045-.011,0,0l.007,0ZM25.864,35.261l.132.154c-.005.027-.018.04-.032.04-.034,0-.082-.068-.1-.194m-9.147-5.748c.021.019.035.036.032.044Zm-.19-.1c-.025,0-.021-.005,0,0m61.822-3.235c.017-.044.019-.033,0,0m-71.094-3.7-.006,0c-.032.01-.026.005-.017,0l.011-.005a.039.039,0,0,1,.012,0m65.012-2.32.019.01-.019-.01m-11.606-7.9a.125.125,0,0,1,.025.038s-.013-.017-.025-.038M37.661,0a27.688,27.688,0,0,0-5.846.77,59.411,59.411,0,0,0-20.89,9.183q-1.586,1.1-3.1,2.307c-.723.576-1.853.947-2.37,1.753a.936.936,0,0,0,.791,1.437c.558.033,1.141-.7,1.621-1.1q1.745-1.44,3.608-2.729a54.51,54.51,0,0,1,25.6-9.4c-9.525,2.395-19.4,4.962-26.955,11.237a17.606,17.606,0,0,0-5.46,7.014c-.722,1.895-.845,4.367,1.267,5.412a3.4,3.4,0,0,0,1.352.334,8.122,8.122,0,0,0,4.489-1.555C22.7,18.137,33.465,8.709,46.418,6.625,43.286,7.7,42.3,8.089,40.261,8.842c-2.273.838-4.862,2.088-7.048,3.137A56.78,56.78,0,0,0,18.064,22.158a19.178,19.178,0,0,0-4.029,5.608c-.5,1.072-.886,2.286.12,3.46a3.35,3.35,0,0,0,2.517,1.123c1.912.019,3.5-1.145,4.993-2.257a135.534,135.534,0,0,1,17.9-11.787,66.036,66.036,0,0,1,7.113-3.228q1.307-.5,2.638-.933a50.134,50.134,0,0,1,5.108-1.378c1.45-.307,3.355-1.032,4.9-.73a8.327,8.327,0,0,1-1.5.76c-.816.316-1.636.618-2.458.914-1.722.618-3.457,1.2-5.192,1.779-3.465,1.163-6.936,2.329-10.287,3.8C32.943,22.332,26.29,26.96,23.2,33.969a3.589,3.589,0,0,0-.146,2.686c.813,2.183,3.1,2.034,4.9,1.515,3.626-1.045,6.868-3.086,10.088-5.054C48.083,26.979,58.8,21.182,70.5,20.062a.1.1,0,0,1,.048.181c-5.043,2.249-10.406,3.695-15.6,5.574-5.37,1.942-10.686,4.431-14.753,8.441a10.354,10.354,0,0,0-2.506,3.481,4.83,4.83,0,0,0,.166,4.171,4.915,4.915,0,0,0,3.937,2.164,11.507,11.507,0,0,0,4.561-.853c5.366-1.911,10.162-5.052,14.937-8.1,2.393-1.526,4.8-3.043,7.294-4.39,2.015-1.086,4.952-2.973,7.34-3.2a.163.163,0,0,1,.132.269c-1.705,1.876-4.453,2.9-6.6,4.116-2.482,1.409-5.024,2.707-7.579,3.979-1.1.548-1.179,2.413.3,1.833,2.811-1.1,5.579-2.3,8.294-3.617,2.623-1.274,5.878-2.533,8.149-4.382A6.866,6.866,0,0,0,80.7,28.093a2.743,2.743,0,0,0,.528-1.12,2.373,2.373,0,0,0-1.757-2.618c-1.737-.659-3.813-.206-5.511.354C65.23,27.6,57.614,33.042,49.4,37.18a16.993,16.993,0,0,1-6.44,2.122.4.4,0,0,1-.31-.68c3.556-3.607,8.252-5.935,13.019-7.7C60.735,29.05,66,27.721,70.959,25.6a12.055,12.055,0,0,0,4.315-2.731,4.845,4.845,0,0,0,1.211-4.745,4.842,4.842,0,0,0-3.618-2.833,12.282,12.282,0,0,0-4.763.173c-14.5,2.653-27.324,10.732-39.724,18.717a.226.226,0,0,1-.334-.262,8.891,8.891,0,0,1,2.773-3.608c8.1-7.079,18.892-10,28.887-13.978a7.824,7.824,0,0,0,4.077-2.79,3.153,3.153,0,0,0,.486-2.122c-.35-2.366-3.13-2.962-5.36-2.881-6.987.254-13.554,3.229-19.864,6.239C33.121,17.6,27.151,20.564,22.3,24.979A21.785,21.785,0,0,1,17.5,28.8a.218.218,0,0,1-.291-.282,16.066,16.066,0,0,1,4.375-5.426c8.027-7,18.365-10.639,28.447-14.072a6.215,6.215,0,0,0,3.176-1.854A2.457,2.457,0,0,0,53.709,6C53.934,4.272,52.3,3.33,50.8,3.026a15.505,15.505,0,0,0-6.673.45c-10.31,2.48-19.894,7.825-28.657,13.8-2.176,1.483-4.053,3.34-6.451,4.318a.32.32,0,0,1-.4-.448c1.668-3.171,4.643-5.509,7.681-7.456A73.8,73.8,0,0,1,40.736,3.9a2.03,2.03,0,0,0,1.588-1.461C42.659,1.014,41.077.3,39.79.128A15.8,15.8,0,0,0,37.833,0Z" transform="translate(-4.191)" fill="none"/></clipPath></defs><g transform="translate(-1209.562 -226.753)"><g transform="translate(1209.562 226.753)"><g clip-path="url(#a)"><g transform="translate(0 0)"><g clip-path="url(#a)"><path d="M.08,34.114,1.222,23.448A12.846,12.846,0,0,1,8.786,12.931L25.1,6.331a20.718,20.718,0,0,1,15.853-.058L69,18.054a13.388,13.388,0,0,1,8.2,11.725L77.73,39.5a12.654,12.654,0,0,1-7.994,12.356L48.155,60.5a16.864,16.864,0,0,1-13.734-.438L6.032,46.168C1.886,44.139-.475,39.3.08,34.114" transform="translate(0 -1.858)" fill="#c35b26"/><g transform="translate(1.942 2.517)" opacity="0.5" style="mix-blend-mode:multiply;isolation:isolate"><g clip-path="url(#c)"><path d="M26.759,5.752,10.612,11.961s-7.965,3.48-7.382,10.13c.363,4.143,20.992,12.092,31.53,17.568q.466.242.925.463a26.1,26.1,0,0,0,22.486-.374c5.1-2.419,12.363-5.928,16.175-8.042,4.011-2.223,3.248-7.292,2.451-8.936-2.06-4.253-10.477-6.881-10.477-6.881L41.465,5.363s-6.377-2.979-14.706.389" transform="translate(-3.199 -4.147)" fill="#c35b26"/></g></g><g transform="translate(38.608 22.984)" opacity="0.5" style="mix-blend-mode:multiply;isolation:isolate"><g clip-path="url(#d)"><path d="M102.207,42.809s-.266-2.993-5.324-4.756c-3.151-1.1-14.5,3.024-22.608,6.289a15.436,15.436,0,0,0-8.556,8.624l-.052.129A30.608,30.608,0,0,0,63.638,63.5c-.223,6.482,1.2,12.8,7.422,10.966a8.245,8.245,0,0,0,2.1-.942l21.582-8.641s6.841-2.206,8.467-11.2Z" transform="translate(-63.616 -37.872)" fill="#6a2a07"/></g></g></g></g><g transform="translate(0 2.868)"><g clip-path="url(#e)"><path d="M78.643,29.089s4.638,16.88-11.6,28.749C53.379,67.822,38.666,74.4,23.4,67.113c-3.567-1.7-15.13-8.423-21.4-11.709L13.263,67.331,54.9,80.188,78.685,62.864l7.94-15.576Z" transform="translate(-0.784 -14.303)"/></g></g><g transform="translate(0 0)"><g clip-path="url(#a)"><path d="M81.227,26.974a2.373,2.373,0,0,0-1.757-2.618c-1.737-.659-3.813-.206-5.511.354C65.23,27.6,57.614,33.042,49.4,37.179a16.983,16.983,0,0,1-6.44,2.123.4.4,0,0,1-.311-.681c3.557-3.606,8.253-5.935,13.02-7.7C60.735,29.049,66,27.721,70.96,25.6a12.053,12.053,0,0,0,4.315-2.731,4.844,4.844,0,0,0,1.211-4.745,4.843,4.843,0,0,0-3.618-2.833,12.271,12.271,0,0,0-4.763.173c-14.5,2.653-27.324,10.732-39.724,18.717a.226.226,0,0,1-.334-.262,8.893,8.893,0,0,1,2.773-3.609c8.1-7.078,18.892-10,28.886-13.978a7.831,7.831,0,0,0,4.078-2.789,3.157,3.157,0,0,0,.485-2.122c-.351-2.366-3.131-2.963-5.36-2.881-6.987.254-13.554,3.229-19.864,6.239C33.121,17.6,27.151,20.563,22.3,24.979a21.751,21.751,0,0,1-4.8,3.82.218.218,0,0,1-.291-.282,16.058,16.058,0,0,1,4.374-5.426c8.027-7,18.364-10.64,28.447-14.072a6.224,6.224,0,0,0,3.177-1.853A2.472,2.472,0,0,0,53.709,6c.225-1.728-1.412-2.67-2.906-2.974a15.506,15.506,0,0,0-6.673.451c-10.31,2.48-19.894,7.825-28.657,13.8-2.176,1.483-4.053,3.34-6.451,4.317a.32.32,0,0,1-.4-.448c1.668-3.17,4.644-5.508,7.681-7.456A73.8,73.8,0,0,1,40.736,3.9,2.03,2.03,0,0,0,42.324,2.44C42.659,1.014,41.077.3,39.79.128A23.1,23.1,0,0,0,31.815.77a59.43,59.43,0,0,0-20.89,9.183q-1.586,1.1-3.1,2.307A9.423,9.423,0,0,0,5.79,14.386c-.407.634-.166,1.294.458,1.064A6.719,6.719,0,0,0,7.785,14.26c1.163-.96,2.452-1.781,3.692-2.639a54.5,54.5,0,0,1,25.6-9.4c-9.525,2.394-19.4,4.961-26.955,11.236a17.605,17.605,0,0,0-5.459,7.014c-.723,1.894-.846,4.367,1.266,5.412a3.408,3.408,0,0,0,1.352.334,8.127,8.127,0,0,0,4.489-1.555C22.7,18.137,33.465,8.709,46.418,6.625,43.286,7.7,42.3,8.088,40.261,8.842c-2.273.838-4.862,2.088-7.048,3.137A56.788,56.788,0,0,0,18.065,22.157a19.2,19.2,0,0,0-4.029,5.608c-.5,1.073-.886,2.286.12,3.462a3.349,3.349,0,0,0,2.517,1.122c1.912.019,3.5-1.144,4.993-2.256a135.534,135.534,0,0,1,17.9-11.787,63.253,63.253,0,0,1,9.751-4.161,50.176,50.176,0,0,1,5.108-1.378c1.45-.308,3.355-1.032,4.9-.731a8.256,8.256,0,0,1-1.5.761q-1.223.473-2.458.914c-1.722.618-3.457,1.2-5.192,1.779-3.465,1.163-6.936,2.329-10.287,3.8-6.945,3.044-13.6,7.672-16.688,14.682a3.593,3.593,0,0,0-.146,2.686c.813,2.183,3.1,2.034,4.9,1.515,3.626-1.046,6.869-3.086,10.088-5.054C48.083,26.979,58.8,21.182,70.5,20.062a.1.1,0,0,1,.048.181c-5.043,2.249-10.406,3.695-15.6,5.574-5.37,1.942-10.687,4.431-14.753,8.441a10.348,10.348,0,0,0-2.506,3.481,4.827,4.827,0,0,0,.167,4.17,4.914,4.914,0,0,0,3.937,2.165,11.5,11.5,0,0,0,4.561-.854c5.366-1.911,10.162-5.052,14.937-8.1,2.393-1.525,4.8-3.042,7.295-4.39,2.014-1.085,4.952-2.972,7.338-3.2a.163.163,0,0,1,.132.269c-1.706,1.876-4.453,2.9-6.6,4.117-2.482,1.409-5.024,2.707-7.579,3.978-1.1.549-1.178,2.413.3,1.833,2.811-1.1,5.579-2.3,8.294-3.617,2.624-1.274,5.878-2.533,8.149-4.382A6.876,6.876,0,0,0,80.7,28.093a2.747,2.747,0,0,0,.528-1.12m-73.985-4.5s.008,0,.013,0l-.007,0c-.052.018,0-.008-.006,0m9.285,6.933c-.024,0-.021-.005,0,0m.19.1c.021.019.035.036.032.044ZM60.661,12.255c.018.02.027.035.025.038s-.008-.011-.025-.038M25.864,35.26l.132.154c-.018.09-.106.027-.132-.154m46.4-15.1c.025.012.027.015,0,0m-30.9,19.057.006,0h0c-.015,0-.044-.011,0,0m36.98-13.042c.017-.044.019-.033,0,0" transform="translate(-1.648 0)" fill="#6a2a07"/></g></g><g transform="translate(2.543)"><g clip-path="url(#g)"><path d="M67.452,56.727a24.892,24.892,0,0,1,11.012-8.146c7.334-2.773,11.922-2.832,11.922-2.832L71.278,55.07Z" transform="translate(-29.06 -17.985)"/><path d="M108.849,48.164s9.4-6.563,10.642-5.162-10.422,6.022-10.422,6.022Z" transform="translate(-45.333 -16.827)"/><path d="M90.334,35.592s12.693-5.586,15.355-5.388c3.936.293,4.188,3.524-13.756,6.224" transform="translate(-38.055 -11.871)"/><path d="M42.475,47.461c-3.934,2.064-2.69-4.065,7.171-7.636a123.482,123.482,0,0,0,14.241-6.119Z" transform="translate(-18.423 -13.25)"/><path d="M31.018,41.415s7.379-7.087,10.838-9.023,13.206-6.016,13.206-6.016L49.188,29.96l-7.17,3.76Z" transform="translate(-14.737 -10.369)"/><path d="M58.964,12.068S67.885,5.944,71.2,6.68s-2.624,2.276-12.238,5.388" transform="translate(-25.723 -2.602)"/><path d="M15.64,33.2s5.565-5.111,8.234-7.043a37.555,37.555,0,0,1,12.4-6S23.71,27.111,21.046,30.319,15.64,33.2,15.64,33.2" transform="translate(-8.692 -7.925)"/><path d="M13.81,25.246s-4.859,5.714-6.216,4.342S14.537,18.58,23.139,18.051Z" transform="translate(-5.471 -7.096)"/><path d="M35.811,6.082S48.938.41,52.19,1.459c3.6,1.16-2.626.26-16.379,4.623" transform="translate(-16.621 -0.523)"/><path d="M81.84,20.574s9.423-4.035,10.553-3.336S88.6,19.328,87.7,19.72a44.531,44.531,0,0,1-5.859.854" transform="translate(-34.716 -6.745)"/><path d="M59.14,68.794s3.507,3.179,11.873.225l-2.106,4.752-9.188.986Z" transform="translate(-25.792 -27.044)"/><path d="M107.251,55.83s-9.444,3.912-9.632,2.307-1.613,1.553-1.613,1.553l3.576,1.424,4.445-2.86Z" transform="translate(-40.285 -21.948)"/></g></g><g transform="translate(0 0)"><g clip-path="url(#a)"><path d="M17.758,17.133a19.8,19.8,0,0,1,2.852-2.214,28.8,28.8,0,0,1,3.142-1.761,29.026,29.026,0,0,1,3.325-1.4,22.176,22.176,0,0,1,3.485-.93.21.21,0,0,1,.127.4l-.006,0c-1.08.5-2.162.958-3.222,1.472s-2.117,1.017-3.162,1.551L21.17,15.878c-1.049.535-2.094,1.088-3.17,1.594l-.005,0a.211.211,0,0,1-.236-.342" transform="translate(-6.956 -4.256)" fill="#fef8e1"/><path d="M12.779,24.367c.118.151.7-.1,1.292-.567s.984-.963.867-1.114-.7.1-1.293.567-.984.963-.866,1.114" transform="translate(-5.015 -8.901)" fill="#fef8e1"/><path d="M43.352,15.919c.13.275,2.023-.346,4.228-1.387s3.889-2.107,3.759-2.382-2.023.346-4.228,1.387-3.889,2.107-3.759,2.382" transform="translate(-17.04 -4.751)" fill="#fef8e1"/><path d="M91.049,23.55c.134.353,1.387.2,2.8-.332s2.448-1.256,2.315-1.609-1.387-.2-2.8.332S90.915,23.2,91.049,23.55" transform="translate(-35.788 -8.42)" fill="#fef8e1"/><path d="M84.262,26.945c.086.226.75.183,1.483-.1s1.258-.687,1.173-.913-.75-.183-1.483.1-1.258.686-1.173.912" transform="translate(-33.121 -10.14)" fill="#fef8e1"/><path d="M107.255,47.153c.121.269,1.06.11,2.1-.357s1.778-1.064,1.657-1.333-1.06-.11-2.1.357-1.778,1.064-1.656,1.333" transform="translate(-42.158 -17.821)" fill="#fef8e1"/><path d="M123.672,47.836c.094.169.518.112.947-.127s.7-.569.607-.737-.518-.112-.947.127-.7.569-.607.737" transform="translate(-48.61 -18.427)" fill="#fef8e1"/><path d="M7.655,37.279A5.4,5.4,0,0,0,9.5,36.822a10.02,10.02,0,0,0,1.725-.952c.563-.36,1.091-.791,1.633-1.216.257-.23.534-.442.8-.669s.532-.461.822-.676l.013-.01a.271.271,0,0,1,.4.351c-.18.32-.383.625-.589.93s-.455.578-.7.858a9.506,9.506,0,0,1-1.684,1.473,6.463,6.463,0,0,1-2.078.969,4.6,4.6,0,0,1-1.166.151,2.809,2.809,0,0,1-1.193-.245.265.265,0,0,1,.1-.5Z" transform="translate(-2.883 -13.07)" fill="#fef8e1"/><path d="M67.419,20.657c-1.579.566-3.151,1.162-4.716,1.751s-3.115,1.215-4.649,1.869-3.048,1.348-4.553,2.065c-1.495.736-2.964,1.517-4.431,2.34l0,0a.21.21,0,0,1-.239-.344A27.985,27.985,0,0,1,53,25.4a41.172,41.172,0,0,1,4.573-2.26A44.557,44.557,0,0,1,67.32,20.25a.21.21,0,0,1,.1.405Z" transform="translate(-19.165 -7.959)" fill="#fef8e1"/><path d="M37.692,54.3a3.061,3.061,0,0,0,.14,1.816.661.661,0,0,0,.493.335,2.072,2.072,0,0,0,.8-.033,8.536,8.536,0,0,0,1.828-.637c.619-.263,1.219-.589,1.832-.913,2.486-1.317,4.986-2.6,7.579-3.744l0,0a.216.216,0,0,1,.228.361A31.124,31.124,0,0,1,47.146,54c-1.191.773-2.422,1.478-3.666,2.157a11.631,11.631,0,0,1-4.2,1.5,3,3,0,0,1-1.293-.138,1.707,1.707,0,0,1-1.028-1.033,2.467,2.467,0,0,1-.049-1.255,4.042,4.042,0,0,1,.377-1.076.215.215,0,0,1,.4.128Z" transform="translate(-14.488 -20.09)" fill="#fef8e1"/><path d="M88.64,42.574c-1.557.551-3.11,1.06-4.655,1.565l-2.307.773-1.149.387c-.38.136-.755.286-1.138.412-1.512.556-3.016,1.131-4.471,1.805a32.817,32.817,0,0,0-4.235,2.33l0,0a.171.171,0,0,1-.228-.249A14.876,14.876,0,0,1,74.3,46.361a26.5,26.5,0,0,1,4.535-2.156,32.569,32.569,0,0,1,4.8-1.374,25.667,25.667,0,0,1,4.949-.591.171.171,0,0,1,.059.333Z" transform="translate(-27.681 -16.605)" fill="#fef8e1"/><path d="M63.443,65.8a34.19,34.19,0,0,0,5.949-.658c.488-.087.956-.244,1.438-.356.466-.161.949-.285,1.409-.472.946-.322,1.833-.777,2.775-1.206l.019-.008a.307.307,0,0,1,.341.5,10.725,10.725,0,0,1-2.6,1.9,11.939,11.939,0,0,1-3.044,1.134,12.363,12.363,0,0,1-3.223.346,9.625,9.625,0,0,1-3.187-.584.308.308,0,0,1,.1-.6Z" transform="translate(-24.814 -24.793)" fill="#fef8e1"/><path d="M117.648,49.615A9.877,9.877,0,0,1,116.1,50.72c-.543.314-1.1.609-1.663.867a23.915,23.915,0,0,1-3.494,1.341.238.238,0,0,1-.189-.433c1.069-.645,2.174-1.2,3.278-1.749.55-.277,1.108-.539,1.665-.8s1.134-.5,1.689-.725l.016-.007a.238.238,0,0,1,.249.4" transform="translate(-43.492 -19.341)" fill="#fef8e1"/><path d="M84.262,26.945c.086.226.75.183,1.483-.1s1.258-.687,1.173-.913-.75-.183-1.483.1-1.258.686-1.173.912" transform="translate(-33.121 -10.14)" fill="#fef8e1"/></g></g></g></g></g></svg>