<svg xmlns="http://www.w3.org/2000/svg" xmlns:xlink="http://www.w3.org/1999/xlink" width="127" height="99" viewBox="0 0 127 99"><defs><clipPath id="a"><rect width="71" height="71" transform="translate(1043 2969)" fill="#fff" stroke="#707070" stroke-width="1"/></clipPath><clipPath id="b"><path d="M0-71H71V0H0Z"/></clipPath></defs><g transform="translate(-1015 -2955)"><rect width="127" height="99" rx="10" transform="translate(1015 2955)" fill="#fcc02d"/><g clip-path="url(#a)"><g transform="translate(1043 3040)"><g clip-path="url(#b)"><g transform="translate(65.99 -33.41)"><path d="M0,0H-23.091a.416.416,0,0,1-.416-.416V-29.849a.416.416,0,0,1,.416-.416H0a.416.416,0,0,1,.416.416V-.416A.416.416,0,0,1,0,0" fill="#eaf6ff"/></g><g transform="translate(48.258 -33.826)"><path d="M0,0V-29.433a.416.416,0,0,1,.416-.416H-5.359a.416.416,0,0,0-.416.416V0a.416.416,0,0,0,.416.416H.416A.416.416,0,0,1,0,0" fill="#d8ecfe"/></g><g transform="translate(66.406 -48.119)"><path d="M0,0V-15.14a.416.416,0,0,0-.416-.416H-23.507a.416.416,0,0,0-.416.416V14.293a.416.416,0,0,0,.416.416H-.416A.416.416,0,0,0,0,14.293V4.854" fill="none" stroke="#000" stroke-linecap="round" stroke-linejoin="round" stroke-miterlimit="10" stroke-width="2.08"/></g><g transform="translate(48.991 -56.389)"><path d="M0,0H10.906" fill="none" stroke="#000" stroke-linecap="round" stroke-linejoin="round" stroke-miterlimit="10" stroke-width="2.08"/></g><g transform="translate(48.991 -51.159)"><path d="M0,0H10.906" fill="none" stroke="#000" stroke-linecap="round" stroke-linejoin="round" stroke-miterlimit="10" stroke-width="2.08"/></g><g transform="translate(48.991 -45.927)"><path d="M0,0H10.906" fill="none" stroke="#000" stroke-linecap="round" stroke-linejoin="round" stroke-miterlimit="10" stroke-width="2.08"/></g><g transform="translate(48.991 -40.696)"><path d="M0,0H7.206" fill="none" stroke="#000" stroke-linecap="round" stroke-linejoin="round" stroke-miterlimit="10" stroke-width="2.08"/></g><g transform="translate(61.859 -5.485)"><path d="M0,0H-21.516V-19.977h21.1A.416.416,0,0,1,0-19.561Z" fill="#fed2a4"/></g><path d="M40.343-5.485h4.7V-25.463h-4.7Z" fill="#ffbd86"/><g transform="translate(61.859 -4.299)"><path d="M0,0H-21.516V-21.164h21.1A.416.416,0,0,1,0-20.748Z" fill="none" stroke="#000" stroke-linecap="round" stroke-linejoin="round" stroke-miterlimit="10" stroke-width="2.08"/></g><g transform="translate(53.712 -20.012)"><path d="M0,0H-5.222a.416.416,0,0,1-.416-.416V-5.451H.416V-.416A.416.416,0,0,1,0,0" fill="#fe646f"/></g><g transform="translate(50.386 -20.428)"><path d="M0,0V-5.035H-2.311V0A.416.416,0,0,0-1.9.416H.416A.416.416,0,0,1,0,0" fill="#fd4755"/></g><g transform="translate(53.712 -20.012)"><path d="M0,0H-5.222a.416.416,0,0,1-.416-.416V-5.451H.416V-.416A.416.416,0,0,1,0,0Z" fill="none" stroke="#000" stroke-linecap="round" stroke-linejoin="round" stroke-miterlimit="10" stroke-width="2.08"/></g><g transform="translate(35.5 -22.227)"><path d="M0,0H-21.516V-19.561a.416.416,0,0,1,.416-.416H-.416A.416.416,0,0,1,0-19.561Z" fill="#fed2a4"/></g><g transform="translate(19.115 -42.204)"><path d="M0,0H-4.715a.416.416,0,0,0-.416.416V19.977H-.416V.416A.416.416,0,0,1,0,0" fill="#ffbd86"/></g><g transform="translate(35.5 -34.529)"><path d="M0,0V-7.259a.416.416,0,0,0-.416-.416H-21.1a.416.416,0,0,0-.416.416V12.3H0V4.854" fill="none" stroke="#000" stroke-linecap="round" stroke-linejoin="round" stroke-miterlimit="10" stroke-width="2.08"/></g><g transform="translate(27.353 -36.753)"><path d="M0,0H-5.222a.416.416,0,0,1-.416-.416V-5.451H.416V-.416A.416.416,0,0,1,0,0" fill="#fe646f"/></g><g transform="translate(24.038 -37.169)"><path d="M0,0V-5.035H-2.323V0a.416.416,0,0,0,.416.416H.416A.416.416,0,0,1,0,0" fill="#fd4755"/></g><g transform="translate(27.353 -36.753)"><path d="M0,0H-5.222a.416.416,0,0,1-.416-.416V-5.451H.416V-.416A.416.416,0,0,1,0,0Z" fill="none" stroke="#000" stroke-linecap="round" stroke-linejoin="round" stroke-miterlimit="10" stroke-width="2.08"/></g><g transform="translate(40.343 -5.485)"><path d="M0,0H-31.2V-19.561a.416.416,0,0,1,.416-.416H0Z" fill="#f6a96c"/></g><g transform="translate(14.145 -25.463)"><path d="M0,0H-4.588A.416.416,0,0,0-5,.416V19.977H-.416V.416A.416.416,0,0,1,0,0" fill="#ea9b58"/></g><g transform="translate(40.343 -5.485)"><path d="M0,0H-31.2V-19.561a.416.416,0,0,1,.416-.416H0Z" fill="none" stroke="#000" stroke-linecap="round" stroke-linejoin="round" stroke-miterlimit="10" stroke-width="2.08"/></g><g transform="translate(27.699 -20.012)"><path d="M0,0H-5.914A.416.416,0,0,1-6.33-.416V-5.451H.416V-.416A.416.416,0,0,1,0,0" fill="#fe646f"/></g><g transform="translate(23.713 -20.428)"><path d="M0,0V-5.035H-2.344V0a.416.416,0,0,0,.416.416H.416A.416.416,0,0,1,0,0" fill="#fd4755"/></g><g transform="translate(27.699 -20.012)"><path d="M0,0H-5.914A.416.416,0,0,1-6.33-.416V-5.451H.416V-.416A.416.416,0,0,1,0,0Z" fill="none" stroke="#000" stroke-linecap="round" stroke-linejoin="round" stroke-miterlimit="10" stroke-width="2.08"/></g><g transform="translate(68.775 -1.04)"><path d="M0,0H-66.55a.416.416,0,0,1-.416-.416V-4.784A.416.416,0,0,1-66.55-5.2H0a.416.416,0,0,1,.416.416V-.416A.416.416,0,0,1,0,0" fill="#fac600"/></g><g transform="translate(8.333 -1.456)"><path d="M0,0V-4.368a.416.416,0,0,1,.416-.416H-6.108a.416.416,0,0,0-.416.416V0a.416.416,0,0,0,.416.416H.416A.416.416,0,0,1,0,0" fill="#e8b801"/></g><g transform="translate(52.834 -6.24)"><path d="M0,0H-50.609a.416.416,0,0,0-.416.416V4.784a.416.416,0,0,0,.416.416h66.55a.416.416,0,0,0,.416-.416V.416A.416.416,0,0,0,15.941,0H4.854" fill="none" stroke="#000" stroke-linecap="round" stroke-linejoin="round" stroke-miterlimit="10" stroke-width="2.08"/></g><g transform="translate(51.734 -61.755)"><path d="M0,0A8.2,8.2,0,0,1-8.2,8.2a8.2,8.2,0,0,1-8.2-8.2A8.2,8.2,0,0,1-8.2-8.2,8.2,8.2,0,0,1,0,0" fill="#4fc123"/></g><g transform="translate(40.03 -61.755)"><path d="M0,0A8.207,8.207,0,0,1,5.852-7.86,8.2,8.2,0,0,0,3.5-8.2,8.2,8.2,0,0,0-4.7,0,8.2,8.2,0,0,0,3.5,8.2a8.2,8.2,0,0,0,2.353-.344A8.207,8.207,0,0,1,0,0" fill="#47a920"/></g><g transform="translate(51.734 -61.755)"><path d="M0,0A8.2,8.2,0,0,1-8.2,8.2a8.2,8.2,0,0,1-8.2-8.2A8.2,8.2,0,0,1-8.2-8.2,8.2,8.2,0,0,1,0,0Z" fill="none" stroke="#000" stroke-linecap="round" stroke-linejoin="round" stroke-miterlimit="10" stroke-width="2.08"/></g><g transform="translate(39.822 -62.622)"><path d="M0,0,3.187,3.187,7.416-1.042" fill="none" stroke="#000" stroke-linecap="round" stroke-linejoin="round" stroke-miterlimit="10" stroke-width="2.08"/></g></g></g></g></g></svg>