<svg xmlns="http://www.w3.org/2000/svg" xmlns:xlink="http://www.w3.org/1999/xlink" width="127" height="99" viewBox="0 0 127 99"><defs><clipPath id="a"><rect width="71" height="71" transform="translate(4024 -8731)" fill="#fff" stroke="#707070" stroke-width="1"/></clipPath></defs><g transform="translate(-3996 8745)"><rect width="127" height="99" rx="10" transform="translate(3996 -8745)" fill="#fcc02d"/><g clip-path="url(#a)"><g transform="translate(4024 -8731)"><path d="M49.242,20.613v4.581H39.634c-.916-1.592-2.989-2.141-2.989-4.581Z" fill="#fcd770"/><path d="M49.242,16.032v4.581h-12.6V17.177c0-.389-.011-.767-.046-1.145Z" fill="#b4dd7f"/><path d="M53.823,53.823H69.855V69.855H53.823Z" fill="#ef7385"/><path d="M69.855,12.6V28.629H53.823V22.9l1.271-.63a1.862,1.862,0,0,0,0-3.321l-1.271-.63V12.6Z" fill="#ef7385"/><path d="M53.823,33.21H69.855V49.242H53.823Z" fill="#ef7385"/><path d="M4.581,20.613a3.431,3.431,0,0,0,3.435,3.435H9.161V25.7a10.316,10.316,0,0,0,5.7,9.219l.538.263a1.148,1.148,0,0,1,.63,1.031v2.725l-4.237.973-.412.1a13.791,13.791,0,0,0-6.459,3.825c-1.317-1.409-3.779-2.015-3.779-4.329,0-3.149,4.581-3.149,4.581-6.31s-4.581-3.149-4.581-6.3,3.435-3.138,3.435-6.287Z" fill="#656d78"/><path d="M20.613,13.261a2.816,2.816,0,0,1-2.829,2.771,7.634,7.634,0,0,1-5.451-2.279,3.435,3.435,0,0,0-3.172,3.424H8.016a3.441,3.441,0,0,0-3.435,3.435V17.177A16.03,16.03,0,0,1,36.6,16.032c.034.378.046.756.046,1.145v3.435a3.441,3.441,0,0,0-3.435-3.435H32.065V13.2a2.815,2.815,0,0,1-2.829,2.829A14.794,14.794,0,0,1,20.613,13.261Z" fill="#656d78"/><path d="M39.634,25.194a3.22,3.22,0,0,1,.447,1.706c0,3.149-4.581,3.149-4.581,6.3s4.581,3.161,4.581,6.31c0,2.313-2.462,2.92-3.779,4.329a13.791,13.791,0,0,0-6.459-3.825l-.412-.1-4.237-.973V36.21a1.148,1.148,0,0,1,.63-1.031l.538-.263a10.316,10.316,0,0,0,5.7-9.219V24.048H33.21a3.431,3.431,0,0,0,3.435-3.435c0,2.439,2.073,2.989,2.989,4.581Z" fill="#656d78"/><path d="M40.081,53.307v2.806H30.919V49.242h-12.6l-1.145,2.29-3.435-2.29H10.306v6.871H1.145V53.307a13.747,13.747,0,0,1,10.238-13.3l1.409,1.409a11.059,11.059,0,0,0,15.643,0l1.409-1.409a13.747,13.747,0,0,1,10.238,13.3Z" fill="#fcd770"/><path d="M55.094,18.952a1.862,1.862,0,0,1,0,3.321l-1.271.63-4.581,2.29V16.032l4.581,2.29Z" fill="#ccd1d9"/><path d="M35.637,18.185a3.433,3.433,0,0,1-2.428,5.863H32.065V17.177H33.21a3.427,3.427,0,0,1,2.428,1.008Z" fill="#f0d0b4"/><path d="M9.161,17.177v6.871H8.016a3.435,3.435,0,0,1,0-6.871Z" fill="#f0d0b4"/><path d="M32.065,17.177V25.7a10.316,10.316,0,0,1-5.7,9.219l-.538.263a1.148,1.148,0,0,0-.63,1.031v2.725l4.237.973.412.1L28.434,41.42a11.069,11.069,0,0,1-15.643,0l-1.409-1.409.412-.1,4.237-.973V36.21a1.148,1.148,0,0,0-.63-1.031l-.538-.263a10.316,10.316,0,0,1-5.7-9.219v-8.52a3.435,3.435,0,0,1,3.172-3.424,7.634,7.634,0,0,0,5.451,2.279,2.816,2.816,0,0,0,2.829-2.771,14.794,14.794,0,0,0,8.623,2.771A2.815,2.815,0,0,0,32.065,13.2Z" fill="#f0d0b4"/><path d="M37.79,56.113v8.016a3.431,3.431,0,0,0-3.435-3.435H33.21a2.3,2.3,0,0,0-2.29,2.29V56.113Z" fill="#f0d0b4"/><path d="M37.79,65.274v1.145a3.431,3.431,0,0,1-3.435,3.435H33.21a2.3,2.3,0,0,1-2.29-2.29V62.984a2.3,2.3,0,0,1,2.29-2.29h1.145a3.431,3.431,0,0,1,3.435,3.435Z" fill="#f0d0b4"/><path d="M10.306,65.274v2.29a2.3,2.3,0,0,1-2.29,2.29H6.871a3.431,3.431,0,0,1-3.435-3.435v-2.29a3.431,3.431,0,0,1,3.435-3.435H8.016a2.3,2.3,0,0,1,2.29,2.29Z" fill="#f0d0b4"/><path d="M10.306,56.113v6.871a2.3,2.3,0,0,0-2.29-2.29H6.871a3.431,3.431,0,0,0-3.435,3.435V56.113Z" fill="#f0d0b4"/><path d="M33.21,69.855H8.016a2.3,2.3,0,0,0,2.29-2.29V49.242h3.435l3.435,2.29,1.145-2.29h12.6V67.565A2.3,2.3,0,0,0,33.21,69.855Z" fill="#d3a06c"/><path d="M24.048,49.242v6.871H17.177V51.532l1.145-2.29Z" fill="#b27946"/><circle cx="1.145" cy="1.145" r="1.145" transform="translate(25.194 19.468)"/><circle cx="1.145" cy="1.145" r="1.145" transform="translate(13.742 19.468)"/><path d="M19.98,27.364l1.265-.633a2.291,2.291,0,0,0,1.025-3.072l-.512-1.025v-2.02h-2.29V22.9a1.148,1.148,0,0,0,.12.512l.633,1.265-1.265.633Z"/><path d="M20.613,28.629a5.749,5.749,0,0,0-4.96,2.862l1.982,1.147a3.438,3.438,0,0,1,5.955,0l1.981-1.147A5.748,5.748,0,0,0,20.613,28.629Z"/><path d="M52.677,11.452V16.47l-3.165-1.583H37.62a17.168,17.168,0,0,0-34.184,2.29v3.435c0,1.021-.461,1.492-1.346,2.3A5.065,5.065,0,0,0,0,26.9C0,29.081,1.545,30.144,2.787,31c1.145.788,1.793,1.279,1.793,2.206s-.648,1.419-1.793,2.207C1.545,36.264,0,37.327,0,39.5s1.545,3.241,2.787,4.1c.174.119.334.236.5.353A14.846,14.846,0,0,0,0,53.3v3.954H2.29v9.161A4.585,4.585,0,0,0,6.871,71H34.355a4.585,4.585,0,0,0,4.581-4.581V57.258h2.29V53.3a14.853,14.853,0,0,0-3.284-9.351c.163-.118.324-.235.5-.355,1.241-.853,2.786-1.916,2.786-4.093s-1.545-3.241-2.787-4.1c-1.145-.788-1.793-1.279-1.793-2.207s.648-1.418,1.793-2.206c1.243-.853,2.787-1.915,2.787-4.093a4.907,4.907,0,0,0-.04-.566h8.326l3.165-1.583v5.018H71V11.452Zm1.9,9.795-4.189,2.094V17.885l4.189,2.094a.708.708,0,0,1,0,1.267ZM48.1,17.177v2.29H37.79v-2.29ZM27.571,40.66a9.9,9.9,0,0,1-13.916,0l3.523-.813V36.208a2.278,2.278,0,0,0-1.267-2.049l-.539-.269A9.108,9.108,0,0,1,10.308,25.7v-8.52a2.3,2.3,0,0,1,1.658-2.2,8.763,8.763,0,0,0,5.817,2.2,3.967,3.967,0,0,0,3.5-2.135,15.817,15.817,0,0,0,7.949,2.135,3.947,3.947,0,0,0,1.686-.388V25.7a9.109,9.109,0,0,1-5.064,8.192l-.539.269a2.275,2.275,0,0,0-1.267,2.049v3.639ZM33.21,18.323a2.29,2.29,0,0,1,0,4.581h0ZM20.613,2.29A14.894,14.894,0,0,1,35.474,16.655a4.522,4.522,0,0,0-2.264-.623V13.2a3.954,3.954,0,0,0-2.2-3.557l-.725-.362-1.024,2.049.725.362a1.686,1.686,0,0,1-.754,3.194,13.544,13.544,0,0,1-7.52-2.273,3.954,3.954,0,0,0-2.154-2.969l-.725-.362-1.024,2.049.725.362a1.686,1.686,0,0,1-.754,3.194,6.485,6.485,0,0,1-6.049-4.094l-.365-.913-2.125.85.365.913a8.885,8.885,0,0,0,.811,1.524,4.6,4.6,0,0,0-2.236,2.865H8.016a4.522,4.522,0,0,0-2.264.623A14.894,14.894,0,0,1,20.613,2.29ZM8.016,18.323V22.9h0a2.29,2.29,0,0,1,0-4.581ZM2.29,39.5c0-.929.648-1.419,1.794-2.208,1.241-.854,2.786-1.916,2.786-4.094s-1.545-3.24-2.787-4.093C2.938,28.322,2.29,27.832,2.29,26.9c0-1.021.461-1.492,1.346-2.3a11.013,11.013,0,0,0,.964-.969,4.548,4.548,0,0,0,3.416,1.56h0v.5a11.389,11.389,0,0,0,6.33,10.241l.539.27v1.816L11.54,38.8a14.909,14.909,0,0,0-6.673,3.476c-.258-.2-.522-.381-.782-.56C2.938,40.923,2.29,40.433,2.29,39.5ZM9.161,57.258v2.5a3.4,3.4,0,0,0-1.145-.211H6.871a4.534,4.534,0,0,0-2.29.637V57.258ZM18.323,51.8l.708-1.415H22.9v4.581H18.323Zm6.871,5.456V50.387h4.581v7.241l-6.009,2.4,1.486,4.46,2.172-.725-.8-2.411,3.154-1.262v7.47a3.4,3.4,0,0,0,.211,1.145H16.032l1.944-2.591,3.272-2.182-1.27-1.906L17.5,63.686,15.841,61.2l-1.906,1.27,1.84,2.761L13.169,68.71H11.241a3.4,3.4,0,0,0,.211-1.145V50.387h1.943l2.637,1.758v5.113ZM6.871,68.71a2.293,2.293,0,0,1-2.29-2.29v-2.29a2.293,2.293,0,0,1,2.29-2.29H8.016a1.146,1.146,0,0,1,1.145,1.145v1.145H6.871v2.29h2.29v1.145A1.146,1.146,0,0,1,8.016,68.71Zm29.774-2.29a2.293,2.293,0,0,1-2.29,2.29H33.21a1.146,1.146,0,0,1-1.145-1.145V66.419h2.29v-2.29h-2.29V62.984a1.146,1.146,0,0,1,1.145-1.145h1.145a2.293,2.293,0,0,1,2.29,2.29v2.29Zm0-6.234a4.533,4.533,0,0,0-2.29-.637H33.21a3.4,3.4,0,0,0-1.145.211v-2.5h4.581Zm2.29-5.217H32.065V48.1H17.615l-.882,1.764L14.089,48.1H9.161v6.871H2.29V53.3a12.531,12.531,0,0,1,8.766-12l.928.928a12.2,12.2,0,0,0,17.258,0l.928-.928a12.531,12.531,0,0,1,8.766,12ZM37.142,29.11c-1.243.853-2.787,1.916-2.787,4.093s1.545,3.24,2.786,4.094c1.145.788,1.794,1.279,1.794,2.208s-.648,1.419-1.793,2.207c-.261.18-.526.365-.784.561A14.9,14.9,0,0,0,29.685,38.8l-3.346-.773V36.208l.541-.269A11.388,11.388,0,0,0,33.21,25.7v-.5a4.548,4.548,0,0,0,3.416-1.56,11.172,11.172,0,0,0,.964.969c.884.808,1.346,1.28,1.346,2.3,0,.928-.648,1.418-1.793,2.206Zm1.994-6.2a5.437,5.437,0,0,1-1.043-1.157h10v2.29H40.239A9.737,9.737,0,0,0,39.136,22.915ZM68.71,27.484H54.968V23.611l.633-.317a3,3,0,0,0,0-5.363l-.633-.316V13.742H68.71Z"/><path d="M52.677,50.387H71V32.065H52.677Zm2.29-16.032H68.71V48.1H54.968Z"/><path d="M59.548,43.042l-1.481-1.481-1.619,1.619,3.1,3.1L67.229,38.6,65.61,36.981Z"/><path d="M52.677,71H71V52.677H52.677Zm2.29-16.032H68.71V68.71H54.968Z"/><path d="M59.548,63.655l-1.481-1.481-1.619,1.619,3.1,3.1,7.681-7.681L65.61,57.594Z"/><path d="M56.448,24.384,58.068,26l3.771-3.771L65.61,26l1.619-1.619-3.771-3.771,3.771-3.771L65.61,15.223l-3.771,3.771-3.771-3.771-1.619,1.619,3.771,3.771Z"/></g></g></g></svg>