<svg xmlns="http://www.w3.org/2000/svg" xmlns:xlink="http://www.w3.org/1999/xlink" width="127" height="99" viewBox="0 0 127 99"><defs><clipPath id="a"><rect width="71" height="71" transform="translate(692 2969)" fill="#fff" stroke="#707070" stroke-width="1"/></clipPath></defs><g transform="translate(-664 -2955)"><rect width="127" height="99" rx="10" transform="translate(664 2955)" fill="#fcc02d"/><g clip-path="url(#a)"><g transform="translate(690.855 2967.854)"><path d="M69.855,50.387H52.677V68.71H69.855A1.149,1.149,0,0,0,71,67.565V51.532A1.149,1.149,0,0,0,69.855,50.387Z" fill="#d3a06c"/><path d="M48.1,50.387H27.484V40.081a1.146,1.146,0,0,1,1.145-1.145H48.1Z" fill="#d3a06c"/><path d="M65.274,13.742H37.79a1.149,1.149,0,0,0-1.145,1.145V38.935H48.1V30.919a1.149,1.149,0,0,1,1.145-1.145H66.419V14.887A1.149,1.149,0,0,0,65.274,13.742Z" fill="#d3a06c"/><path d="M59.548,50.387h4.581v4.581H59.548Z" fill="#b27946"/><path d="M68.71,50.387H48.1V30.919a1.146,1.146,0,0,1,1.145-1.145H67.565a1.146,1.146,0,0,1,1.145,1.145Z" fill="#d3a06c"/><path d="M54.968,29.774h6.871v4.581H54.968Z" fill="#b27946"/><path d="M48.1,13.742h6.871v6.871H48.1Z" fill="#b27946"/><path d="M48.1,68.71v1.145A1.149,1.149,0,0,1,46.952,71H30.919a1.149,1.149,0,0,1-1.145-1.145V49.242A1.149,1.149,0,0,1,30.919,48.1h3.435v1.145A1.149,1.149,0,0,0,35.5,50.387h6.871a1.149,1.149,0,0,0,1.145-1.145V48.1H48.1V68.71Z" fill="#e6e9ed"/><path d="M43.516,48.1v1.145a1.149,1.149,0,0,1-1.145,1.145H35.5a1.149,1.149,0,0,1-1.145-1.145v-2.29A1.149,1.149,0,0,1,35.5,45.806h6.871a1.149,1.149,0,0,1,1.145,1.145Z" fill="#b4dd7f"/><path d="M16.971,12.665a5.067,5.067,0,0,0-3.241,4.7v.962H12.585a3.427,3.427,0,0,0-2.428,1.008A3.38,3.38,0,0,0,9.15,21.758a3.431,3.431,0,0,0,3.435,3.435h1.157L13.73,33.21,9.745,30.816a15.358,15.358,0,0,1,7.9-28.526H28.629a5.726,5.726,0,0,1,1.145,11.337,5.4,5.4,0,0,1-1.145.115H19.468a3.427,3.427,0,0,1-2.428-1.008l-.069-.069Z" fill="#656d78"/><path d="M29.774,29.774a4.579,4.579,0,0,1-4.581,4.581H20.613v6.63a17.872,17.872,0,0,0-6.882-2.05V33.21l.011-8.016H12.585A3.431,3.431,0,0,1,9.15,21.758a3.38,3.38,0,0,1,1.008-2.428,3.427,3.427,0,0,1,2.428-1.008H13.73v-.962a5.067,5.067,0,0,1,3.241-4.7l.069.069a3.427,3.427,0,0,0,2.428,1.008h9.161a5.4,5.4,0,0,0,1.145-.115v2.851a2.251,2.251,0,0,0,.389,1.271l1.489,2.233a2.582,2.582,0,0,1,.412,1.386A2.479,2.479,0,0,1,30.69,23.59l-.286.137a1.148,1.148,0,0,0-.63,1.031Z" fill="#f0d0b4"/><path d="M29.774,60.694v6.871a3.431,3.431,0,0,0-3.435-3.435L20.613,58.4l3.435-3.435Z" fill="#b4dd7f"/><path d="M20.613,64.129V71H16.032A11.456,11.456,0,0,1,4.581,59.548V53.742a16.557,16.557,0,0,1,9.15-14.807,17.872,17.872,0,0,1,6.882,2.05,18.284,18.284,0,0,1,6.871,6.344v.011A17.871,17.871,0,0,1,29.671,52.3l.1.378v8.016l-5.726-5.726L22.09,53.01a1.155,1.155,0,0,0-.8-.332,2.971,2.971,0,0,0-2.966,2.966,1.155,1.155,0,0,0,.332.8L20.613,58.4l5.726,5.726H25.194v-.172a2.123,2.123,0,0,0-4.02-.95Z" fill="#fcd770"/><path d="M26.339,64.129a3.435,3.435,0,0,1,0,6.871H20.613V64.129l.561-1.122a2.123,2.123,0,0,1,4.02.95v.172Z" fill="#f0d0b4"/><path d="M24.048,54.968,20.613,58.4l-1.958-1.958a1.155,1.155,0,0,1-.332-.8,2.971,2.971,0,0,1,2.966-2.966,1.155,1.155,0,0,1,.8.332Z" fill="#aab2bd"/><path d="M24.048,18.323a1.145,1.145,0,0,1-2.29,0V17.177h-2.29v1.145a3.435,3.435,0,1,0,6.871,0V17.177h-2.29Z"/><path d="M69.855,49.242V30.919a2.293,2.293,0,0,0-2.29-2.29V14.887a2.293,2.293,0,0,0-2.29-2.29H37.79a2.293,2.293,0,0,0-2.29,2.29v22.9H28.629a2.293,2.293,0,0,0-2.29,2.29v3.93a19.559,19.559,0,0,0-4.581-3.675V35.5h3.435a5.732,5.732,0,0,0,5.726-5.726l0-5.017.285-.142a3.633,3.633,0,0,0,1.4-5.264l-1.488-2.232a1.139,1.139,0,0,1-.192-.634v-2a6.866,6.866,0,0,0-2.29-13.341H17.645A16.5,16.5,0,0,0,9.156,31.793l3.432,2.059,0,4.391a17.612,17.612,0,0,0-9.148,15.5v5.8a12.612,12.612,0,0,0,12.6,12.6H26.339a4.535,4.535,0,0,0,2.744-.936,2.282,2.282,0,0,0,1.837.936H46.952a2.293,2.293,0,0,0,2.29-2.29H69.855a2.293,2.293,0,0,0,2.29-2.29V51.532A2.293,2.293,0,0,0,69.855,49.242Zm-20.613,0V30.919h4.581V35.5h9.161V30.919h4.581V49.242Zm11.452,2.29h2.29v2.29h-2.29ZM56.113,30.919h4.581v2.29H56.113ZM49.242,14.887h4.581v4.581H49.242Zm-11.452,0h9.161v6.871h9.161V14.887h9.161V28.629H49.242a2.293,2.293,0,0,0-2.29,2.29v2.29h-2.29V35.5h2.29v2.29H37.79ZM28.629,40.081H46.952v6.871h-2.29a2.293,2.293,0,0,0-2.29-2.29H35.5a2.293,2.293,0,0,0-2.29,2.29h-2.29a2.279,2.279,0,0,0-1.812.906c-.15-.275-.316-.538-.479-.8Zm13.744,9.161H35.5v-2.29h6.871Zm-15.507,13.8L22.232,58.4l1.816-1.816,4.581,4.581v2.453A4.522,4.522,0,0,0,26.867,63.038Zm-7.4-7.4a1.819,1.819,0,0,1,1.816-1.816l1.145,1.145-1.816,1.816ZM29.206,18.39l1.489,2.233a1.342,1.342,0,0,1-.515,1.942l-.284.142a2.275,2.275,0,0,0-1.267,2.049v3.873h-2.29a2.293,2.293,0,0,1-2.29-2.29h-2.29a4.585,4.585,0,0,0,4.581,4.581h2.08a3.431,3.431,0,0,1-3.225,2.29H17.177V35.5h2.29v3.693a19.188,19.188,0,0,0-4.594-1.262l.015-13.883H12.582a2.29,2.29,0,0,1,0-4.581h2.286l.008-2.1a3.92,3.92,0,0,1,1.931-3.346,4.542,4.542,0,0,0,2.661.867h9.161v1.6a3.426,3.426,0,0,0,.577,1.906ZM10.334,29.83A14.21,14.21,0,0,1,17.645,3.435H28.629a4.581,4.581,0,0,1,0,9.161H19.468a2.29,2.29,0,0,1,0-4.581V5.726a4.585,4.585,0,0,0-4.581,4.581,4.525,4.525,0,0,0,.451,1.949,6.22,6.22,0,0,0-2.75,4.922h-.007a4.581,4.581,0,1,0,0,9.161H12.6l0,4.845ZM5.726,59.548v-5.8A15.325,15.325,0,0,1,13.949,40.12,17.157,17.157,0,0,1,28.565,52.6l.064.232v5.1L22.9,52.2a2.308,2.308,0,0,0-1.619-.671,4.11,4.11,0,0,0-4.107,4.107,2.308,2.308,0,0,0,.671,1.619l3.793,3.793a3.23,3.23,0,0,0-1.494,1.45l-.242.483H16.032A3.44,3.44,0,0,1,12.6,59.548V51.532h-2.29v8.016a5.732,5.732,0,0,0,5.726,5.726h3.435v4.581H16.032A10.318,10.318,0,0,1,5.726,59.548ZM26.339,69.855H21.758V64.4l.437-.875a.978.978,0,0,1,1.853.437v1.312h2.29a2.29,2.29,0,1,1,0,4.581Zm4.581,0V49.242h2.29a2.293,2.293,0,0,0,2.29,2.29h6.871a2.293,2.293,0,0,0,2.29-2.29h2.29V69.855ZM49.242,51.532h2.29V67.565h-2.29ZM69.855,67.565H53.823V51.532H58.4v4.581h6.871V51.532h4.581Z"/><path d="M51.532,44.661h2.29v2.29h-2.29Z"/><path d="M56.113,44.661H58.4v2.29h-2.29Z"/><path d="M40.081,33.21h2.29V35.5h-2.29Z"/></g></g></g></svg>