<svg xmlns="http://www.w3.org/2000/svg" xmlns:xlink="http://www.w3.org/1999/xlink" width="122" height="122" viewBox="0 0 122 122"><defs><clipPath id="a"><rect width="92" height="92" transform="translate(215 1348)" fill="#fff" stroke="#707070" stroke-width="1"/></clipPath></defs><g transform="translate(-200 -1333)"><circle cx="61" cy="61" r="61" transform="translate(200 1333)" fill="#fcc02d"/><g clip-path="url(#a)"><g transform="translate(214.822 1348)"><circle cx="9.708" cy="9.708" r="9.708" transform="translate(5.259 1.348)" fill="#fd6930"/><path d="M11.392,12.943a4.032,4.032,0,0,1,0-3.775,9.722,9.722,0,0,1,6.548-7.354,9.707,9.707,0,1,0,0,18.483A9.721,9.721,0,0,1,11.392,12.943Z" fill="#ef4424"/><path d="M23.721,15.254a9.716,9.716,0,1,0-4.412,4.482" fill="none" stroke="#000" stroke-linecap="round" stroke-linejoin="round" stroke-miterlimit="10" stroke-width="2.695"/><circle cx="4.043" cy="4.043" r="4.043" transform="translate(10.923 7.012)" fill="#fff"/><circle cx="4.043" cy="4.043" r="4.043" transform="translate(10.923 7.012)" fill="none" stroke="#000" stroke-linecap="round" stroke-linejoin="round" stroke-miterlimit="10" stroke-width="2.695"/><line x2="15.802" transform="translate(24.674 11.055)" fill="none" stroke="#000" stroke-linecap="round" stroke-linejoin="round" stroke-miterlimit="10" stroke-width="2.695"/><circle cx="5.771" cy="5.771" r="5.771" transform="translate(40.476 5.284)" fill="#05e39c"/><path d="M44.989,11.055A5.773,5.773,0,0,1,48.5,5.742a5.771,5.771,0,1,0,0,10.625A5.771,5.771,0,0,1,44.989,11.055Z" fill="#0ed290"/><circle cx="5.771" cy="5.771" r="5.771" transform="translate(40.476 5.284)" fill="none" stroke="#000" stroke-linecap="round" stroke-linejoin="round" stroke-miterlimit="10" stroke-width="2.695"/><circle cx="5.771" cy="5.771" r="5.771" transform="translate(71.756 5.284)" fill="#ffd15b"/><path d="M76.255,11.055a5.772,5.772,0,0,1,3.522-5.316,5.771,5.771,0,1,0,0,10.632A5.772,5.772,0,0,1,76.255,11.055Z" fill="#ffc344"/><circle cx="5.771" cy="5.771" r="5.771" transform="translate(71.756 5.284)" fill="none" stroke="#000" stroke-linecap="round" stroke-linejoin="round" stroke-miterlimit="10" stroke-width="2.695"/><path d="M27.43,49.4,14.966,44.254V55.541L27.43,50.4A.539.539,0,0,0,27.43,49.4Z" fill="#fd6930"/><path d="M19.473,46.115l-4.507-1.86V55.541l4.507-1.86Z" fill="#ef4424"/><path d="M27.43,49.4,14.966,44.254V55.541L27.43,50.4A.539.539,0,0,0,27.43,49.4Z" fill="none" stroke="#000" stroke-linecap="round" stroke-linejoin="round" stroke-miterlimit="10" stroke-width="2.695"/><line x2="19.738" transform="translate(52.018 11.055)" fill="none" stroke="#000" stroke-linecap="round" stroke-linejoin="round" stroke-miterlimit="10" stroke-width="2.695"/><circle cx="9.708" cy="9.708" r="9.708" transform="translate(5.259 71.237)" fill="#fd6930"/><path d="M11.392,82.832a4.032,4.032,0,0,1,0-3.775A9.722,9.722,0,0,1,17.941,71.7a9.708,9.708,0,1,0,0,18.483A9.722,9.722,0,0,1,11.392,82.832Z" fill="#ef4424"/><path d="M18.566,71.929a9.712,9.712,0,1,0,4.779,4.115" fill="none" stroke="#000" stroke-linecap="round" stroke-linejoin="round" stroke-miterlimit="10" stroke-width="2.695"/><circle cx="4.043" cy="4.043" r="4.043" transform="translate(10.923 76.902)" fill="#fff"/><circle cx="4.043" cy="4.043" r="4.043" transform="translate(10.923 76.902)" fill="none" stroke="#000" stroke-linecap="round" stroke-linejoin="round" stroke-miterlimit="10" stroke-width="2.695"/><line x2="15.802" transform="translate(24.674 80.945)" fill="none" stroke="#000" stroke-linecap="round" stroke-linejoin="round" stroke-miterlimit="10" stroke-width="2.695"/><circle cx="5.771" cy="5.771" r="5.771" transform="translate(40.476 75.174)" fill="#01d0fb"/><path d="M44.989,80.945A5.773,5.773,0,0,1,48.5,75.632a5.771,5.771,0,1,0,0,10.625A5.772,5.772,0,0,1,44.989,80.945Z" fill="#01c0fa"/><circle cx="5.771" cy="5.771" r="5.771" transform="translate(40.476 75.174)" fill="none" stroke="#000" stroke-linecap="round" stroke-linejoin="round" stroke-miterlimit="10" stroke-width="2.695"/><circle cx="5.771" cy="5.771" r="5.771" transform="translate(71.756 75.174)" fill="#05e39c"/><path d="M76.255,80.945a5.772,5.772,0,0,1,3.522-5.316,5.771,5.771,0,1,0,0,10.632A5.772,5.772,0,0,1,76.255,80.945Z" fill="#0ed290"/><circle cx="5.771" cy="5.771" r="5.771" transform="translate(71.756 75.174)" fill="none" stroke="#000" stroke-linecap="round" stroke-linejoin="round" stroke-miterlimit="10" stroke-width="2.695"/><line x2="19.738" transform="translate(52.018 80.945)" fill="none" stroke="#000" stroke-linecap="round" stroke-linejoin="round" stroke-miterlimit="10" stroke-width="2.695"/><line y2="58.347" transform="translate(77.527 16.826)" fill="none" stroke="#000" stroke-linecap="round" stroke-linejoin="round" stroke-miterlimit="10" stroke-width="2.695"/><circle cx="9.708" cy="9.708" r="9.708" transform="translate(67.819 36.292)" fill="#fd6930"/><path d="M74.723,48.909a4.034,4.034,0,0,1,0-5.817,9.732,9.732,0,0,1,6.033-6.247,9.708,9.708,0,1,0,0,18.311A9.732,9.732,0,0,1,74.723,48.909Z" fill="#ef4424"/><path d="M86.741,42.945a9.707,9.707,0,1,0-.061,6.289" fill="none" stroke="#000" stroke-linecap="round" stroke-linejoin="round" stroke-miterlimit="10" stroke-width="2.695"/><circle cx="4.043" cy="4.043" r="4.043" transform="translate(73.484 41.957)" fill="#fff"/><circle cx="4.043" cy="4.043" r="4.043" transform="translate(73.484 41.957)" fill="none" stroke="#000" stroke-linecap="round" stroke-linejoin="round" stroke-miterlimit="10" stroke-width="2.695"/><path d="M69.941,44.545l-7.073-4.084a.539.539,0,0,1-.27-.467V34.141a1.8,1.8,0,0,0-1.8-1.8H35.825a1.8,1.8,0,0,0-1.8,1.8V57.859a1.8,1.8,0,0,0,1.8,1.8H60.8a1.8,1.8,0,0,0,1.8-1.8v-7.83a.539.539,0,0,1,.27-.467l7.073-4.084A.539.539,0,0,0,69.941,44.545Z" fill="#ffe177"/><path d="M43.192,57.859V34.141a1.8,1.8,0,0,1,1.8-1.8H35.825a1.8,1.8,0,0,0-1.8,1.8V57.859a1.8,1.8,0,0,0,1.8,1.8h9.164A1.8,1.8,0,0,1,43.192,57.859Z" fill="#ffd15b"/><path d="M69.941,44.545l-7.073-4.084a.539.539,0,0,1-.27-.467V34.141a1.8,1.8,0,0,0-1.8-1.8H35.825a1.8,1.8,0,0,0-1.8,1.8V57.859a1.8,1.8,0,0,0,1.8,1.8H60.8a1.8,1.8,0,0,0,1.8-1.8v-7.83a.539.539,0,0,1,.27-.467l7.073-4.084A.539.539,0,0,0,69.941,44.545Z" fill="none" stroke="#000" stroke-linecap="round" stroke-linejoin="round" stroke-miterlimit="10" stroke-width="2.695"/><line x2="13.656" transform="translate(41.485 40.12)" fill="none" stroke="#000" stroke-linecap="round" stroke-linejoin="round" stroke-miterlimit="10" stroke-width="2.695"/><line x2="13.656" transform="translate(41.485 46)" fill="none" stroke="#000" stroke-linecap="round" stroke-linejoin="round" stroke-miterlimit="10" stroke-width="2.695"/><line x2="7.879" transform="translate(41.485 51.88)" fill="none" stroke="#000" stroke-linecap="round" stroke-linejoin="round" stroke-miterlimit="10" stroke-width="2.695"/><line y1="26.983" transform="translate(14.966 44.254)" fill="none" stroke="#000" stroke-linecap="round" stroke-linejoin="round" stroke-miterlimit="10" stroke-width="2.695"/></g></g></g></svg>