<svg xmlns="http://www.w3.org/2000/svg" xmlns:xlink="http://www.w3.org/1999/xlink" width="122" height="122" viewBox="0 0 122 122"><defs><clipPath id="a"><rect width="92" height="92" transform="translate(1057 1348)" fill="#fff" stroke="#707070" stroke-width="1"/></clipPath></defs><g transform="translate(-1042 -1333)"><circle cx="61" cy="61" r="61" transform="translate(1042 1333)" fill="#fcc02d"/><g clip-path="url(#a)"><g transform="translate(1056.591 1347.063)"><path d="M66.007,82.142v5.867a2.942,2.942,0,0,1-2.934,2.934H42.538A2.942,2.942,0,0,1,39.6,88.009V82.142a2.942,2.942,0,0,1,2.934-2.934H63.073A2.942,2.942,0,0,1,66.007,82.142Z" fill="#5cd6b3"/><path d="M61.606,33.737v8.8H44v-8.8h17.6Z" fill="#e6e9ed"/><path d="M23.469,38.137,13.2,45.471,2.934,38.137,13.2,30.8Z" fill="#fcd770"/><path d="M64.54,61.606,52.805,68.94,41.071,61.606l11.735-7.334Z" fill="#fcd770"/><path d="M64.54,2.934v17.6H41.071V2.934Z" fill="#f0d0b4"/><circle cx="2.934" cy="2.934" r="2.934" transform="translate(10.268 82.142)" fill="#ff826e"/><circle cx="2.934" cy="2.934" r="2.934" transform="translate(85.075 8.801)" fill="#ff826e"/><circle cx="2.934" cy="2.934" r="2.934" transform="translate(85.075 58.673)" fill="#ff826e"/><path d="M63.073,77.741h-8.8V69.753l13.036-8.147L54.272,53.459V44h8.8V32.27h-8.8V22H66.007V1.467H39.6V22H51.338V32.27h-8.8v4.4h-13.2V39.6h13.2V44h8.8v9.455L38.3,61.606l13.036,8.147v7.988h-8.8a4.406,4.406,0,0,0-4.4,4.4v5.867a4.406,4.406,0,0,0,4.4,4.4H63.073a4.406,4.406,0,0,0,4.4-4.4V82.142A4.406,4.406,0,0,0,63.073,77.741ZM42.538,19.069V4.4H63.073V19.069Zm2.934,22V35.2H60.139v5.867ZM43.839,61.606,52.805,56l8.967,5.6-8.967,5.6Zm20.7,26.4a1.469,1.469,0,0,1-1.467,1.467H42.538a1.469,1.469,0,0,1-1.467-1.467V82.142a1.469,1.469,0,0,1,1.467-1.467H63.073a1.469,1.469,0,0,1,1.467,1.467Z"/><path d="M26.832,80.245,30.2,83.608H17.332a4.4,4.4,0,0,0-2.664-2.664V49.872H11.735V80.945a4.39,4.39,0,1,0,5.6,5.6H30.2l-3.363,3.363,2.074,2.074,6.9-6.9-6.9-6.9ZM13.2,86.542a1.467,1.467,0,1,1,1.467-1.467A1.469,1.469,0,0,1,13.2,86.542Z"/><path d="M89.476,57.476V15.865a4.39,4.39,0,1,0-5.6-5.6H68.94V13.2H83.878a4.4,4.4,0,0,0,2.664,2.664V57.477a4.4,4.4,0,0,0-2.664,2.664h-9.93l3.363-3.363L75.237,54.7l-6.9,6.9,6.9,6.9,2.074-2.074-3.363-3.363h9.93a4.39,4.39,0,1,0,5.6-5.6ZM88.009,10.268a1.467,1.467,0,1,1-1.467,1.467A1.469,1.469,0,0,1,88.009,10.268Zm0,52.805a1.467,1.467,0,1,1,1.467-1.467A1.469,1.469,0,0,1,88.009,63.073Z"/><path d="M25.993,38.137,13.2,29,.409,38.137,13.2,47.274ZM13.2,32.606l7.743,5.531L13.2,43.668,5.458,38.137Z"/><path d="M45.471,7.334H60.139v2.934H45.471Z"/><path d="M45.471,13.2h8.8v2.934h-8.8Z"/><path d="M57.206,13.2h2.934v2.934H57.206Z"/><path d="M70.407,83.608h2.934v2.934H70.407Z"/><path d="M76.274,83.608h2.934v2.934H76.274Z"/><path d="M82.142,83.608h2.934v2.934H82.142Z"/><path d="M33.737,13.2H36.67v2.934H33.737Z"/><path d="M22,13.2h2.934v2.934H22Z"/><path d="M27.869,13.2H30.8v2.934H27.869Z"/></g></g></g></svg>