<svg xmlns="http://www.w3.org/2000/svg" xmlns:xlink="http://www.w3.org/1999/xlink" width="85" height="91" viewBox="0 0 85 91"><defs><clipPath id="a"><rect width="85" height="91" transform="translate(180 1771)" fill="#fff" stroke="#707070" stroke-width="1"/></clipPath><clipPath id="b"><rect width="85" height="80.78" fill="none"/></clipPath><clipPath id="d"><rect width="27.049" height="27.997" fill="none"/></clipPath><clipPath id="e"><path d="M138.736,35.327l-.747,10.359a.814.814,0,0,0-.006.5l3.946,12.755a.807.807,0,0,0,.671.563l20.282,3.262a.808.808,0,0,0,.9-.677l1.208-4.988a.806.806,0,0,0-.986-.914c-4.379,1.091-6.225-4.347-6.849-6.013a.8.8,0,0,0-.731-.519c-6.73-.174-7.247-5.164-7.282-6.769a.692.692,0,0,0-.405-.678c-3.337-.989-4.2-1.641-3.648-5.146a.844.844,0,0,0-.591-1l-4.807-1.26a.8.8,0,0,0-.95.531" transform="translate(-137.947 -34.774)" fill="none"/></clipPath><clipPath id="g"><path d="M39.861,14.051l-1.737,1.292a1.142,1.142,0,0,0-.418.686L27.132,57.609a1.151,1.151,0,0,0,.648,1.347l49.5,13.611a.947.947,0,0,0,1.168-.862l6.6-26.8c.133-.779-.43-1.465-1.079-1.319-5.509,1.242-7.2-3.832-7.48-5.69a.964.964,0,0,0-1.019-.909c-6.9.976-7.69-4.5-7.757-6.814a1.054,1.054,0,0,0-.776-1.05c-5.064-.958-4.443-5.229-4.074-7.415a1.131,1.131,0,0,0-.7-1.316l-21.6-6.48a.782.782,0,0,0-.2-.027.823.823,0,0,0-.493.169" transform="translate(-27.104 -13.882)" fill="none"/></clipPath><clipPath id="h"><rect width="59.233" height="47.652" fill="none"/></clipPath><clipPath id="j"><rect width="9.28" height="30.31" fill="none"/></clipPath></defs><g transform="translate(-285.333 -285)"><g transform="translate(105.333 -1486)" clip-path="url(#a)"><rect width="85" height="91" rx="22" transform="translate(180 1771)" fill="#fcc02d"/><g transform="translate(180 1786.599)"><g clip-path="url(#b)"><g clip-path="url(#b)"><path d="M139.687,34.8l4.807,1.26a.844.844,0,0,1,.591,1c-.547,3.506.311,4.157,3.648,5.147a.692.692,0,0,1,.405.678c.035,1.605.552,6.6,7.282,6.769a.8.8,0,0,1,.731.519c.624,1.667,2.47,7.1,6.849,6.013a.806.806,0,0,1,.986.914l-1.208,4.988a.808.808,0,0,1-.9.677L142.6,59.5a.807.807,0,0,1-.671-.563l-3.946-12.755a.814.814,0,0,1,.006-.5l.747-10.359a.807.807,0,0,1,.95-.531" transform="translate(-98.683 -24.877)" fill="#6a2a07"/><g transform="translate(39.264 9.898)" opacity="0.5" style="mix-blend-mode:multiply;isolation:isolate"><g clip-path="url(#d)"><path d="M139.687,34.8l4.807,1.26a.832.832,0,0,1,.591,1c-.785,4.02.9,4.309,3.648,5.147a.7.7,0,0,1,.405.678c.035,1.605.552,6.6,7.282,6.769a.8.8,0,0,1,.731.519c.624,1.667,2.47,7.1,6.849,6.013a.806.806,0,0,1,.986.914l-1.208,4.988a.808.808,0,0,1-.9.677L142.6,59.5a.807.807,0,0,1-.671-.563l-3.946-12.755a.814.814,0,0,1,.006-.5l.747-10.359a.807.807,0,0,1,.95-.531" transform="translate(-137.947 -34.774)" fill="#6a2a07"/></g></g></g><g transform="translate(39.264 9.898)"><g clip-path="url(#e)"><path d="M191.57,78.186c-.334.094-5.628,9.279-5.628,9.279s2.136,1.291,2.213,1.035,4.7-9.253,4.7-9.253Z" transform="translate(-172.281 -65.83)"/><path d="M160.777,60.147l5.9-5.487L165.2,52.844l-5.391,5.642Z" transform="translate(-153.585 -47.701)"/><path d="M147.1,36.155l6.234-2.457-.848-3.354-5.623.244Z" transform="translate(-144.327 -31.605)"/><path d="M213.66,105.743c.5-.014,5.617-3.537,5.617-3.537l-.988-2.336-7.1,4.761Z" transform="translate(-190.345 -81.342)"/></g></g><g clip-path="url(#b)"><path d="M27.133,57.608l10.573-41.58a1.142,1.142,0,0,1,.418-.686l1.737-1.292a.8.8,0,0,1,.7-.142l21.6,6.48a1.131,1.131,0,0,1,.7,1.316c-.369,2.186-.99,6.457,4.074,7.415a1.053,1.053,0,0,1,.776,1.05c.067,2.316.852,7.79,7.757,6.814a.963.963,0,0,1,1.019.908c.277,1.858,1.971,6.932,7.48,5.69.649-.146,1.213.54,1.079,1.319l-6.6,26.8a.947.947,0,0,1-1.167.862l-49.5-13.611a1.151,1.151,0,0,1-.648-1.347" transform="translate(-19.39 -9.93)" fill="#6a2a07"/></g><g transform="translate(7.715 3.951)"><g clip-path="url(#g)"><g transform="translate(2.637 -3.084)" opacity="0.5" style="mix-blend-mode:multiply;isolation:isolate"><g transform="translate(0 0)"><g clip-path="url(#h)"><path d="M91.58,37.022,95.6,19.071l-2.185-.493-3.83,17.108-2.657-1.777-9.339-2.433,3.974-17.749-2.185-.492L75.419,30.911,60.164,26.937,63.981,9.892,61.8,9.4,58,26.372,42.93,22.447,47.787,3.54,45.6,3.048l-9.236,33.62,2.406,1.958,3.611-14.054,15.148,3.873L54.714,41.028l2.185.493L59.7,29l15.27,3.9L72.3,44.863l2.185.492,2.663-11.9,12.238,3.129L86.333,50.207l2.185.493,3.035-13.555.338.087Z" transform="translate(-36.367 -3.047)" fill="#6a2a07"/></g></g></g></g></g><g clip-path="url(#b)"><path d="M76.766,142.171l2.1,3.844-4,3.831-51.8-12.5-2.638-4.425,4.228-3.764,20.556,6,9.191.278,12.227,4.909Z" transform="translate(-14.606 -92.398)"/><path d="M13.692,112.8c-.212-9.421,2.474-4.3,3.1-2.932,1.808,3.932,2.882-1.258,4.386-1.212,2.852.087,4.753,3.17,6.278,2.544,3.479-1.429,2.728,1.943,7.442,2.747,4.825.823,6.6-2.49,8.188.126,1.844,3.038,4.481,2.788,7.484,1.525s3.592,1.925,5.712,3.072,8.017-3.5,7.031,1.348c-.458,2.251,3.018,1.076,4.34.321a.552.552,0,0,1,.812.618L62.251,152.43,5.778,150.776" transform="translate(-4.133 -76.722)" fill="#f1b203"/><path d="M9.2,129.072l53.954,13.234L57.2,172.89,0,167.291Z" transform="translate(0 -92.334)" fill="#f08c1d"/><path d="M79.246,136.471c.811.62,1.5,2.118-.568,5.7a4.98,4.98,0,0,0-3.953-3.209c-2.5-.218-7.743,1.432-10.541-.376-3.187-2.06-7.321-5.534-10.451-3.25-2.628,1.918-2.811-4.48-12.569-2.852-10.486,1.75-13.848-5.582-16.883-5.491a6.347,6.347,0,0,0-4.048,2.089c-.529.541,1.94-5.01,3.977-5.285s7.117,4.923,15.1,3.819,2.588,3.777,10.408,2.333,5.142,3.182,11.442,1.692c6.248-1.478.568,5.47,16.667,4.435a2.114,2.114,0,0,1,1.423.4" transform="translate(-14.423 -88.549)" fill="#fef8e1"/><path d="M44.246,126.826s5.734,4.4,9.345,3.746c2.87-.518,1.9-.645,3.854-.926,0,0-7.723.74-13.2-2.82" transform="translate(-31.652 -90.728)"/><path d="M138.7,162.431s4.585-1.312,9.15,2.78c0,0-5.024-5.515-9.15-2.78" transform="translate(-99.223 -115.654)"/><path d="M226.443,166.9s2.317,1.792.309,5.142" transform="translate(-161.991 -119.392)" fill="none" stroke="#000" stroke-linecap="round" stroke-miterlimit="10" stroke-width="0.788"/><path d="M22.261,128.339a8.415,8.415,0,0,1,2.6-3.422" transform="translate(-15.925 -89.362)" fill="none" stroke="#000" stroke-linecap="round" stroke-miterlimit="10" stroke-width="0.788"/><path d="M147.423,148.669s3.726,1.076,6.143.332c0,0-4.406,1.73-6.143-.332" transform="translate(-105.462 -106.353)"/><path d="M86.643,153.213s8.206-2.555,11.43,1.66c0,0-4-1.871-11.43-1.66" transform="translate(-61.982 -109.055)"/><path d="M114.29,31.092c-.091.8-.229,1.581-.387,2.36s-.336,1.554-.529,2.325-.4,1.538-.628,2.3-.467,1.522-.751,2.27a.131.131,0,0,1-.253-.063c.1-.794.24-1.578.4-2.358s.333-1.555.519-2.327.393-1.54.619-2.3.469-1.521.761-2.267a.132.132,0,0,1,.254.063" transform="translate(-79.935 -22.138)" fill="#fef8e1"/><path d="M144,106.37c-.794-.07-1.578-.188-2.358-.326s-1.554-.3-2.326-.469-1.54-.36-2.3-.569-1.525-.428-2.276-.693a.132.132,0,0,1,.057-.255c.793.078,1.575.2,2.355.336s1.555.293,2.328.459,1.542.353,2.306.559,1.524.43,2.274.7a.132.132,0,0,1-.057.255" transform="translate(-96.325 -74.439)" fill="#fef8e1"/><path d="M68.689,86.95c-.794-.07-1.578-.188-2.358-.326s-1.554-.3-2.326-.469-1.54-.36-2.3-.569-1.525-.428-2.276-.693a.132.132,0,0,1,.057-.255c.793.078,1.575.2,2.355.336s1.555.293,2.328.459,1.542.353,2.306.559,1.524.43,2.274.7a.132.132,0,0,1-.057.255" transform="translate(-42.448 -60.547)" fill="#fef8e1"/><path d="M138.347,36.673a2.118,2.118,0,0,1-.557.011,3.512,3.512,0,0,1-.532-.093,3.259,3.259,0,0,1-1.008-.419.1.1,0,0,1,.044-.184,3.264,3.264,0,0,1,1.088.081,3.54,3.54,0,0,1,.517.157,2.141,2.141,0,0,1,.492.261.1.1,0,0,1-.044.184" transform="translate(-97.437 -25.733)" fill="#fef8e1"/><path d="M124.176,101.355a2.118,2.118,0,0,1-.557.011,3.5,3.5,0,0,1-.532-.093,3.257,3.257,0,0,1-1.008-.419.1.1,0,0,1,.044-.184,3.266,3.266,0,0,1,1.089.081,3.514,3.514,0,0,1,.516.158,2.136,2.136,0,0,1,.492.261.1.1,0,0,1-.044.184" transform="translate(-87.3 -72.004)" fill="#fef8e1"/><path d="M108.981,67.764a9.664,9.664,0,0,1-.323,1.793,11.257,11.257,0,0,1-.589,1.724.133.133,0,0,1-.253-.066,11.27,11.27,0,0,1,.322-1.793,9.673,9.673,0,0,1,.589-1.724.133.133,0,0,1,.253.066" transform="translate(-77.128 -48.375)" fill="#fef8e1"/><path d="M68.769,32.831c-.037.3-.092.606-.138.908l-.168.9c-.116.6-.248,1.2-.387,1.791s-.283,1.188-.447,1.777-.323,1.179-.514,1.762a.131.131,0,0,1-.255-.059c.085-.607.2-1.209.313-1.808s.246-1.2.38-1.793.28-1.189.44-1.779l.246-.883c.091-.292.174-.587.275-.877a.131.131,0,0,1,.255.059" transform="translate(-47.829 -23.381)" fill="#fef8e1"/><path d="M125.394,59.7c-.037.3-.092.606-.138.908l-.168.9c-.116.6-.248,1.2-.387,1.791s-.283,1.188-.447,1.777-.323,1.179-.514,1.762a.131.131,0,0,1-.255-.059c.085-.607.2-1.209.313-1.808s.246-1.2.38-1.793.28-1.189.44-1.779l.246-.883c.091-.292.174-.587.275-.877a.131.131,0,0,1,.255.059" transform="translate(-88.337 -42.605)" fill="#fef8e1"/><path d="M102.255,95.249a9.664,9.664,0,0,1-.323,1.793,11.258,11.258,0,0,1-.589,1.724.133.133,0,0,1-.253-.066,11.269,11.269,0,0,1,.322-1.793A9.673,9.673,0,0,1,102,95.183a.133.133,0,0,1,.253.066" transform="translate(-72.316 -68.037)" fill="#fef8e1"/><path d="M216.094,123.761a9.687,9.687,0,0,1-.323,1.793,11.255,11.255,0,0,1-.589,1.724.133.133,0,0,1-.253-.066,11.207,11.207,0,0,1,.322-1.793,9.694,9.694,0,0,1,.589-1.724.133.133,0,0,1,.253.066" transform="translate(-153.753 -88.434)" fill="#fef8e1"/><path d="M79.777,20.367a9.574,9.574,0,0,1-1.783-.326,11.129,11.129,0,0,1-1.713-.592.133.133,0,0,1,.066-.253,11.161,11.161,0,0,1,1.783.326,9.538,9.538,0,0,1,1.713.592.133.133,0,0,1-.066.253" transform="translate(-54.513 -13.732)" fill="#fef8e1"/><path d="M169.8,91.746a3.944,3.944,0,0,1,.171-1.147,4.591,4.591,0,0,1,.437-1.075.136.136,0,0,1,.252.069,4.587,4.587,0,0,1-.171,1.147,3.935,3.935,0,0,1-.437,1.074.136.136,0,0,1-.188.044.138.138,0,0,1-.064-.113" transform="translate(-121.47 -63.995)" fill="#fef8e1"/><path d="M211.4,144.856a3.944,3.944,0,0,1,.171-1.147,4.592,4.592,0,0,1,.437-1.075.136.136,0,0,1,.252.069,4.587,4.587,0,0,1-.171,1.147,3.944,3.944,0,0,1-.437,1.074.136.136,0,0,1-.252-.069" transform="translate(-151.228 -101.989)" fill="#fef8e1"/><path d="M161.76,128.762a3.944,3.944,0,0,1,.171-1.147,4.591,4.591,0,0,1,.437-1.075.136.136,0,0,1,.252.069,4.586,4.586,0,0,1-.171,1.147,3.944,3.944,0,0,1-.437,1.074.136.136,0,0,1-.188.044.138.138,0,0,1-.064-.113" transform="translate(-115.718 -90.475)" fill="#fef8e1"/><path d="M97.819,115.732a3.949,3.949,0,0,1,.077-1.157,4.589,4.589,0,0,1,.348-1.107.135.135,0,0,1,.257.048,4.578,4.578,0,0,1-.077,1.157,3.943,3.943,0,0,1-.348,1.107.136.136,0,0,1-.257-.048" transform="translate(-69.966 -81.117)" fill="#fef8e1"/><path d="M27.238,144.284q-.518,2.735-1.132,5.446t-1.274,5.411c-.446,1.8-.893,3.6-1.377,5.386l-.724,2.685c-.257.891-.5,1.785-.769,2.673a.131.131,0,0,1-.254-.062c.169-.912.367-1.818.55-2.727l.6-2.716c.4-1.811.828-3.613,1.261-5.415s.889-3.6,1.364-5.39.973-3.577,1.507-5.355a.131.131,0,0,1,.254.062" transform="translate(-15.527 -103.105)" fill="#fef8e1"/><path d="M27.221,143.691q-.518,2.735-1.132,5.446t-1.274,5.411c-.446,1.8-.893,3.6-1.377,5.386l-.724,2.685c-.256.891-.5,1.785-.769,2.673a.131.131,0,0,1-.254-.062c.169-.912.367-1.818.55-2.727l.6-2.716c.4-1.811.828-3.613,1.261-5.415s.889-3.6,1.364-5.389.973-3.577,1.507-5.355a.131.131,0,0,1,.254.062" transform="translate(-15.515 -102.681)" fill="#fef8e1"/><path d="M15.243,228.568a16.559,16.559,0,0,1-.265,1.834c-.116.6-.254,1.2-.407,1.8s-.319,1.187-.506,1.773-.385,1.17-.629,1.742a.132.132,0,0,1-.253-.064c.057-.619.159-1.227.274-1.832s.252-1.2.4-1.8.311-1.189.5-1.776a16.617,16.617,0,0,1,.639-1.74.133.133,0,0,1,.254.064" transform="translate(-9.43 -163.409)" fill="#fef8e1"/><path d="M155.119,50.538a7.083,7.083,0,0,0,.265,1.169,4.232,4.232,0,0,0,.5,1.05,2.64,2.64,0,0,0,.813.781,3.579,3.579,0,0,0,1.092.418l.016,0a.131.131,0,0,1-.039.257,2.835,2.835,0,0,1-1.284-.29,2.6,2.6,0,0,1-1.015-.883,3.573,3.573,0,0,1-.524-1.216,3.854,3.854,0,0,1-.082-1.3.131.131,0,0,1,.261,0Z" transform="translate(-110.764 -36.066)" fill="#fef8e1"/><path d="M203.243,99.077a5.852,5.852,0,0,0,.31.881c.059.144.131.283.2.424s.15.273.234.4a5.472,5.472,0,0,0,1.209,1.387,5.413,5.413,0,0,0,1.6.912l.216.088c.075.023.151.042.226.063l.454.125c.306.075.621.109.934.177l.018,0a.13.13,0,0,1-.034.258c-.327-.016-.658-.028-.987-.068l-.489-.1c-.081-.017-.164-.031-.245-.051l-.238-.078c-.159-.054-.32-.1-.477-.161l-.452-.225a2.991,2.991,0,0,1-.434-.259,3.366,3.366,0,0,1-.412-.3,4.974,4.974,0,0,1-1.288-1.547,5.06,5.06,0,0,1-.6-1.9.131.131,0,0,1,.257-.047Z" transform="translate(-145.207 -70.799)" fill="#fef8e1"/><path d="M173.193,72.55a5.827,5.827,0,0,0,.237,1.045c.055.17.116.339.182.5s.139.329.23.482a5.549,5.549,0,0,0,1.311,1.651,6.351,6.351,0,0,0,1.842,1.058,3.1,3.1,0,0,0,.512.171l.522.151c.354.078.715.132,1.074.21l.015,0a.131.131,0,0,1-.037.258c-.374-.027-.75-.058-1.126-.1l-.556-.122a3.408,3.408,0,0,1-.551-.149l-.541-.194c-.18-.067-.343-.173-.516-.258l-.256-.135c-.085-.046-.16-.108-.24-.162-.155-.115-.322-.216-.468-.343a5.356,5.356,0,0,1-1.9-4.066.131.131,0,0,1,.261-.016Z" transform="translate(-123.709 -51.809)" fill="#fef8e1"/><path d="M260.877,74.406,255.364,75.6l.029,1.7a1.047,1.047,0,0,0,.859,1.077c1.118.2,3.013.326,4.1-.819a2.036,2.036,0,0,0,.519-1.174Z" transform="translate(-182.68 -53.228)"/><path d="M255.489,72.48l1.367-1.574a1.8,1.8,0,0,1,1.984-.516l1.736.637a.527.527,0,0,1,.154.9,5.326,5.326,0,0,1-5.063,1.209.408.408,0,0,1-.178-.652" transform="translate(-182.699 -50.276)" fill="#6a2a07"/><path d="M258.089,74.765a3.157,3.157,0,0,1,.527-.8,3.7,3.7,0,0,1,.707-.65.117.117,0,0,1,.171.145,3.675,3.675,0,0,1-.527.8,3.147,3.147,0,0,1-.707.65.117.117,0,0,1-.171-.145" transform="translate(-184.622 -52.431)" fill="#fef8e1"/><path d="M220.281,66.891a4.928,4.928,0,0,1-.87-3.106c.114-.5,3.278-.328,4.07-.2,2.1,2.938-1.513,4.544-3,3.453Z" transform="translate(-156.939 -45.39)"/><path d="M219.869,62.712a1.94,1.94,0,0,1-.643-1.883.983.983,0,0,1,1.222-.849c6.259,1.007,1.107,3.97-.379,2.88Z" transform="translate(-156.797 -42.893)" fill="#6a2a07"/><path d="M221.154,64.464a1.2,1.2,0,0,0,.265.463,1.061,1.061,0,0,0,.435.268,2.278,2.278,0,0,0,.558.109c.2.014.4.017.618.026h.005a.12.12,0,0,1,.036.232c-.105.038-.214.064-.322.1a3.146,3.146,0,0,1-.338.05,1.8,1.8,0,0,1-.707-.082,1.176,1.176,0,0,1-.613-.443,1.006,1.006,0,0,1-.174-.723.118.118,0,0,1,.229-.018Z" transform="translate(-158.031 -46.041)" fill="#fef8e1"/><path d="M170.442,4.9a3.5,3.5,0,0,1,.953-2.372c.389-.326,3.439,1.04,4.168,1.446-.622,4.134-4.629,2.794-5.067,1.132Z" transform="translate(-121.916 -1.771)"/><path d="M172.229,2a1.672,1.672,0,0,1,.676-1.59A1.313,1.313,0,0,1,174.4.133c6.314,3.281-1.615,3.546-2.109,2.056Z" transform="translate(-123.18 0)" fill="#6a2a07"/><path d="M174.323,3.082a.882.882,0,0,0-.069.437.531.531,0,0,0,.193.325,1.963,1.963,0,0,0,.405.267c.154.082.321.154.487.242l.008,0a.12.12,0,0,1-.063.225,2.246,2.246,0,0,1-.587-.1,1.527,1.527,0,0,1-.559-.3.8.8,0,0,1,0-1.253.119.119,0,0,1,.188.134Z" transform="translate(-124.358 -2.074)" fill="#fef8e1"/><path d="M236.844,93.626s-.207-1.429,1.07-.79-.437,2.461-1.07.79" transform="translate(-169.422 -66.294)" fill="#6a2a07"/><path d="M171.222,25.62s-.144-1.568.636-.85-.231,2.689-.636.85" transform="translate(-122.479 -17.585)" fill="#6a2a07"/><path d="M295.366,75.837s-.122-.731.648-.408-.27,1.261-.648.408" transform="translate(-211.291 -53.901)" fill="#6a2a07"/><path d="M149.353,15.011s-.122-.731.648-.408-.27,1.261-.648.408" transform="translate(-106.838 -10.387)" fill="#6a2a07"/><g transform="translate(53.747 50.469)" opacity="0.5" style="mix-blend-mode:multiply;isolation:isolate"><g clip-path="url(#j)"><path d="M194.874,177.353l-6.043,30.271,3.539,0,5.741-29.162a3.662,3.662,0,0,0-3.237-1.111" transform="translate(-188.831 -177.316)" fill="#6a2a07"/></g></g></g></g></g></g></g></svg>